<svg width="40" height="40" viewBox="0 0 20 24" fill="none" xmlns="http://www.w3.org/2000/svg">
<path fill-rule="evenodd" clip-rule="evenodd" d="M10.1874 23.8966C10.5757 23.6378 19.6923 17.4723 19.6923 9.84615C19.6923 4.41692 15.2754 0 9.84615 0C4.41692 0 0 4.41692 0 9.84615C0 17.4723 9.11662 23.6378 9.50492 23.8966C9.60831 23.9655 9.72708 24 9.84615 24C9.96523 24 10.084 23.9655 10.1874 23.8966ZM9.84615 5.53846C12.2252 5.53846 14.1538 7.46708 14.1538 9.84615C14.1538 12.2252 12.2252 14.1538 9.84615 14.1538C7.46708 14.1538 5.53846 12.2252 5.53846 9.84615C5.53846 7.46708 7.46708 5.53846 9.84615 5.53846Z" fill="#0197fd"/>
</svg>