<svg width="654" height="673" viewBox="0 0 654 673" fill="none" xmlns="http://www.w3.org/2000/svg">
<path opacity="0.1" d="M183.106 193.628L183.106 217.496M183.106 153.911L183.106 180.072M183.106 104.23L183.106 139.531M182.719 117.023C154.007 100.36 167.497 70.3387 167.497 70.3387L172.36 72.5419M183.304 117.023C215.026 100.36 198.199 70.3387 198.199 70.3387L193.069 72.4129M183.304 153.911C139.498 145.406 154.007 93.2936 154.007 93.2936C154.007 93.2936 157.632 95.4274 165.189 98.226M183.304 193.628C127.207 193.668 141.37 130.301 141.37 130.301C141.37 130.301 151.7 136.941 158.94 139.045M182.927 193.628C239.024 193.668 224.861 130.301 224.861 130.301C224.861 130.301 214.521 136.941 207.291 139.045M182.868 153.911C226.674 145.406 212.164 93.2936 212.164 93.2936C212.164 93.2936 208.539 95.4274 200.983 98.226M173.073 204.277C173.073 204.277 145.213 209.14 133.288 177.531C124.691 154.735 129.128 124.208 129.237 49.1305M194.089 204.237C194.089 204.237 220.79 209.13 232.715 177.531C241.322 154.735 236.875 124.208 236.756 49.1305M307.164 271.594L307.164 260.121M307.164 290.678L307.164 278.104M307.164 314.566L307.164 297.595M307.352 308.413C321.158 316.422 314.671 330.852 314.671 330.852L312.334 329.79M307.065 308.413C291.813 316.422 299.904 330.852 299.904 330.852L302.37 329.859M307.065 290.678C328.121 294.767 321.148 319.816 321.148 319.816C321.148 319.816 319.405 318.784 315.77 317.444M307.065 271.594C334.034 271.574 327.22 302.031 327.22 302.031C327.22 302.031 322.248 298.846 318.771 297.824M307.253 271.594C280.294 271.574 287.098 302.031 287.098 302.031C287.098 302.031 292.07 298.846 295.546 297.824M307.283 290.678C286.227 294.767 293.199 319.816 293.199 319.816C293.199 319.816 294.942 318.784 298.577 317.444M311.987 266.473C311.987 266.473 325.377 264.141 331.112 279.325C335.242 290.281 333.112 304.959 333.053 341.044M301.885 266.493C301.885 266.493 289.049 264.141 283.315 279.325C279.175 290.281 281.314 304.959 281.374 341.044M348.384 512.03L348.384 535.897M348.384 472.303L348.384 498.473M348.384 422.631L348.384 457.922M347.998 435.414C319.286 418.751 332.776 388.73 332.776 388.73L337.639 390.933M348.582 435.414C380.305 418.751 363.478 388.73 363.478 388.73L358.348 390.804M348.582 472.303C304.777 463.798 319.286 411.685 319.286 411.685C319.286 411.685 322.911 413.819 330.468 416.617M348.583 512.03C292.486 512.069 306.649 448.713 306.649 448.713C306.649 448.713 316.979 455.352 324.219 457.456M348.206 512.03C404.303 512.069 390.14 448.713 390.14 448.713C390.14 448.713 379.8 455.352 372.57 457.456M348.147 472.303C391.952 463.798 377.443 411.685 377.443 411.685C377.443 411.685 373.818 413.819 366.261 416.617M338.352 522.678C338.352 522.678 310.492 527.541 298.567 495.932C289.97 473.136 294.407 442.599 294.516 367.532M359.368 522.639C359.368 522.639 386.07 527.541 397.994 495.932C406.601 473.136 402.154 442.599 402.035 367.532M623.945 292.087L623.945 268.219M623.945 331.804L623.945 305.644M623.945 381.485L623.945 346.185M624.331 368.693C653.043 385.356 639.554 415.387 639.554 415.387L634.691 413.184M623.747 368.693C592.024 385.356 608.851 415.387 608.851 415.387L613.982 413.313M623.747 331.804C667.553 340.309 653.043 392.422 653.043 392.422C653.043 392.422 649.418 390.288 641.862 387.49M623.747 292.087C679.844 292.048 665.681 355.414 665.681 355.414C665.681 355.414 655.341 348.775 648.101 346.671M624.124 292.087C568.027 292.048 582.19 355.414 582.19 355.414C582.19 355.414 592.52 348.775 599.759 346.671M624.183 331.804C580.377 340.309 594.886 392.422 594.886 392.422C594.886 392.422 598.511 390.288 606.068 387.49M633.978 281.439C633.978 281.439 661.838 276.576 673.763 308.185C682.359 330.981 677.922 361.508 677.813 436.585M612.962 281.478C612.962 281.478 586.26 276.576 574.336 308.185C565.729 330.981 570.176 361.508 570.295 436.585M294.11 161.265C297.913 154.556 298.646 142.994 287.187 127.711C287.187 127.711 269.707 144.701 279.333 160.729M293.882 186.016C300.568 175.447 296.675 162.208 286.563 148.711C286.563 148.711 270.925 166.605 278.937 184.022M286.554 224.265L286.554 230.477M294.526 195.484C301.499 189.272 312.522 186.006 312.522 186.006C312.274 216.028 286.563 210.5 286.563 210.5L286.563 215.085M284.969 210.509C284.969 210.509 259.258 216.037 259 186.016C259 186.016 270.024 189.281 276.996 195.494M295.645 165.304C295.645 165.304 300.043 159.915 309.026 158.169C309.026 158.169 313.542 177.214 303.915 189.46M276.62 165.304C276.62 165.304 272.232 159.915 263.239 158.169C263.239 158.169 258.723 177.214 268.34 189.46M305.787 159.002C308.283 153.336 305.787 135.393 305.787 135.393C299.043 137.645 295.645 144.126 295.645 144.126M277.977 127.711L277.927 107.356M277.372 144.136C277.372 144.136 273.975 137.655 267.241 135.402C267.241 135.402 264.735 153.346 267.241 159.012M287.187 115.901L287.187 93.5418M296.616 107.356L296.616 127.711M267.231 135.402L267.231 120.834M305.5 135.402L305.5 120.834M234.359 421.312C230.556 428.02 229.823 439.582 241.282 454.866C241.282 454.866 258.763 437.875 249.136 421.848M234.587 396.56C227.902 407.13 231.794 420.369 241.906 433.866C241.906 433.866 257.544 415.972 249.532 398.555M241.906 358.312L241.906 352.1M233.943 387.093C226.971 393.305 215.947 396.57 215.947 396.57C216.195 366.549 241.906 372.077 241.906 372.077L241.906 367.492M243.501 372.067C243.501 372.067 269.212 366.539 269.469 396.56C269.469 396.56 258.446 393.295 251.473 387.083M232.824 417.272C232.824 417.272 228.427 422.661 219.444 424.408C219.444 424.408 214.927 405.363 224.554 393.117M251.85 417.272C251.85 417.272 256.237 422.661 265.23 424.408C265.23 424.408 269.746 405.363 260.129 393.117M222.682 423.574C220.186 429.231 222.682 447.184 222.682 447.184C229.427 444.931 232.824 438.451 232.824 438.451M250.493 454.866L250.542 475.22M251.097 438.441C251.097 438.441 254.494 444.921 261.229 447.174M261.229 447.174C261.229 447.174 263.735 429.231 261.229 423.564M261.229 447.174L261.229 461.743M241.272 466.676L241.272 489.045M231.853 475.22L231.853 454.866M222.97 447.174L222.97 461.743M532.828 263.545C536.631 256.826 537.364 245.274 525.915 229.991C525.915 229.991 508.434 246.971 518.061 263.009M532.6 288.296C539.285 277.727 535.393 264.488 525.281 250.991C525.281 250.991 509.652 268.884 517.655 286.302M525.281 326.554L525.281 332.757M533.254 297.764C540.226 291.551 551.249 288.296 551.249 288.296C551.002 318.317 525.291 312.789 525.291 312.789L525.291 317.374M523.686 312.789C523.686 312.789 497.975 318.317 497.718 288.296C497.718 288.296 508.741 291.561 515.714 297.764M534.373 267.584C534.373 267.584 538.77 262.195 547.753 260.449C547.753 260.449 552.269 279.493 542.643 291.74M515.347 267.584C515.347 267.584 510.95 262.195 501.967 260.449C501.967 260.449 497.45 279.493 507.067 291.74M544.505 261.282C547.001 255.615 544.505 237.672 544.505 237.672C537.76 239.925 534.363 246.406 534.363 246.406M516.694 229.991L516.655 209.636M516.09 246.416C516.09 246.416 512.693 239.925 505.958 237.682M505.958 237.682C505.958 237.682 503.452 255.625 505.958 261.292M505.958 237.682L505.958 223.114M525.915 218.181L525.915 195.822M535.334 209.636L535.334 229.991M544.217 237.682L544.218 223.114M727.403 412.102C723.055 419.773 722.223 432.973 735.306 450.43C735.306 450.43 755.283 431.028 744.279 412.717M727.67 383.828C720.034 395.896 724.471 411.02 736.039 426.443C736.039 426.443 753.896 405.998 744.755 386.11M736.03 340.131L736.03 333.035M726.928 373.01C718.965 380.106 706.377 383.828 706.377 383.828C706.664 349.529 736.039 355.851 736.039 355.851L736.039 350.611M737.852 355.851C737.852 355.851 767.227 349.529 767.514 383.828C767.514 383.828 754.916 380.106 746.954 373.01M725.65 407.487C725.65 407.487 720.629 413.64 710.358 415.635C710.358 415.635 705.198 393.881 716.192 379.898M747.38 407.487C747.38 407.487 752.401 413.64 762.662 415.635C762.662 415.635 767.822 393.881 756.828 379.898M714.072 414.682C711.23 421.153 714.072 441.647 714.072 441.647C721.777 439.076 725.65 431.673 725.65 431.673M745.834 450.43L745.894 473.682M746.528 431.673C746.528 431.673 750.41 439.076 758.106 441.647M758.106 441.647C758.106 441.647 760.968 421.153 758.106 414.682M758.106 441.647L758.105 458.29M735.306 463.927L735.306 489.472M724.541 473.682L724.541 450.43M714.399 441.647L714.399 458.29M450.069 496.796C458.31 482.584 458.587 457.238 458.587 457.238C458.587 457.238 457.814 482.584 466.055 496.796M418.555 563.299C418.555 563.299 413.008 568.747 408.562 572.816M497.569 563.299C497.569 563.299 503.116 568.747 507.553 572.816M401.143 522.698C401.143 522.698 400.093 523.472 396.33 527.799M515.813 522.698C515.813 522.698 516.862 523.472 520.636 527.799M778.379 339.158C778.379 339.158 771.199 313.266 758.393 301.476M705.604 244.093C705.604 244.093 698.285 240.322 692.501 237.603M699.889 290.946C699.889 290.946 698.582 290.49 693.412 287.304M732.296 609.337C732.296 609.337 704.158 589.092 695.591 568.281M649.646 478.615C649.646 478.615 648.339 468.035 647.626 459.808M708.882 492.528C708.882 492.528 708.912 490.732 707.357 483.041M328.349 602.668C328.349 602.668 321.168 576.776 308.362 564.986M255.574 507.603C255.574 507.603 248.245 503.832 242.471 501.113M249.869 554.456C249.869 554.456 248.561 553.999 243.392 550.814M148.61 332.688C148.61 332.688 152.076 307.539 145.391 292.504M121.106 222.915C121.106 222.915 116.164 216.891 112.173 212.365M98.6141 261.391C98.6141 261.391 97.6435 260.508 94.3652 255.804M353.227 343.773C353.227 343.773 370.857 325.542 386.792 321.553M456.457 297.843C456.457 297.843 464.232 298.032 470.254 298.389M440.076 339.287C440.076 339.287 441.364 339.506 447.088 339.198M481.416 201.558C481.416 201.558 487.517 198.978 489.29 196.487C493.42 190.681 489.062 186.433 488.943 179.516C488.943 179.516 489.735 183.267 484.1 189.311C478.474 195.365 481.416 201.548 481.416 201.548L481.416 201.558ZM481.416 201.558C489.517 211.869 491.964 220.305 491.964 220.305M434.629 150.289C434.629 150.289 429.845 154.884 426.864 155.529C419.912 157.028 417.059 152.889 410.77 150.051C410.77 150.051 414.573 150.706 422.348 147.927C430.123 145.138 434.629 150.299 434.629 150.299L434.629 150.289ZM434.629 150.289C429.231 146.21 413.335 135.512 410.77 134.083M35.4161 441.279C35.4161 441.279 28.7903 441.111 26.1558 442.639C20.0054 446.222 22.2239 451.888 19.4805 458.24C19.4805 458.24 20.3025 454.498 27.9287 451.323C35.5449 448.137 35.4161 441.289 35.4161 441.289L35.4161 441.279ZM35.4161 441.279C32.2765 428.536 33.5245 419.843 33.5245 419.843M56.9179 507.325C56.9179 507.325 63.1673 505.112 66.1485 505.757C73.1011 507.266 73.9925 512.218 78.5483 517.409C78.5483 517.409 75.3592 515.235 67.129 514.56C58.8987 513.885 56.9179 507.325 56.9179 507.325ZM56.9179 507.325C60.1565 513.27 70.219 529.586 71.972 531.948M371.55 90.6935C379.255 90.6637 394.042 86.694 387.902 67.4607C384.495 56.802 374.551 48.5946 374.551 48.5946C374.551 48.5946 362.3 55.1645 357.952 68.1554C356.12 73.6336 355.605 90.7629 371.56 90.7034L371.55 90.6935ZM371.55 90.6935L371.55 118.918M383.108 58.1121C383.108 58.1121 398.737 42.65 373.194 22.3945C373.194 22.3945 347.533 38.3727 363.518 58.1121M375.016 90.6935C375.016 90.6935 386.654 102.593 400.133 91.7554C411.889 82.2976 400.341 71.2915 408.096 63.9277C408.096 63.9277 395.142 58.8464 387.228 65.585M370.184 90.6935C370.184 90.6935 358.546 102.593 345.067 91.7554C333.311 82.2975 344.859 71.2915 337.104 63.9277C337.104 63.9277 350.058 58.8464 357.982 65.585M402.263 62.449C402.263 62.449 408.086 57.199 404.669 47.1953C401.876 39.0376 401.342 32.6761 403.243 27.1979C403.243 27.1979 389.714 29.0934 384.009 33.867M342.363 62.449C342.363 62.449 336.539 57.199 339.956 47.1953C342.749 39.0376 343.284 32.6761 341.382 27.1979C341.382 27.1979 354.911 29.0934 360.616 33.867M392.735 29.6293C392.735 29.6293 391.546 20.1814 385.346 14.2169C379.147 8.24245 375.502 4.35212 373.075 2.00006C373.075 2.00006 369.133 6.40645 358.289 14.9314C351.326 20.3997 351.9 29.6392 351.9 29.6392M213.788 311.42C221.494 311.39 236.281 307.42 230.14 288.187C226.733 277.528 216.789 269.321 216.789 269.321C216.789 269.321 204.538 275.891 200.19 288.882C198.358 294.36 197.843 311.489 213.798 311.43L213.788 311.42ZM213.788 311.42L213.788 339.635M225.346 278.828C225.346 278.828 240.975 263.366 215.433 243.111C215.433 243.111 189.771 259.089 205.756 278.828M217.255 311.42C217.255 311.42 228.892 323.319 242.372 312.482C254.128 303.024 242.58 292.018 250.334 284.654C250.334 284.654 237.38 279.573 229.467 286.311M212.422 311.42C212.422 311.42 200.784 323.319 187.305 312.482C175.549 303.024 187.097 292.018 179.342 284.654C179.342 284.654 192.297 279.573 200.22 286.311M244.501 283.165C244.501 283.165 250.324 277.915 246.907 267.912C244.115 259.754 243.58 253.392 245.481 247.914C245.481 247.914 231.952 249.81 226.248 254.583M184.601 283.165C184.601 283.165 178.778 277.915 182.194 267.912C184.987 259.754 185.522 253.392 183.621 247.914C183.621 247.914 197.15 249.81 202.854 254.583M234.973 250.346C234.973 250.346 233.785 240.898 227.585 234.933C221.385 228.969 217.74 225.069 215.314 222.716C215.314 222.716 211.372 227.123 200.527 235.648C193.564 241.116 194.139 250.356 194.139 250.356M177.302 570.374C185.928 570.335 202.478 565.899 195.604 544.373C191.791 532.444 180.649 523.244 180.649 523.244C180.649 523.244 166.932 530.598 162.069 545.137C160.009 551.27 159.445 570.444 177.302 570.374ZM177.302 570.374L177.302 601.974M190.237 533.903C190.237 533.903 207.737 516.595 179.144 493.918C179.144 493.918 150.422 511.801 168.309 533.903M181.174 570.374C181.174 570.374 194.208 583.703 209.292 571.565C222.444 560.976 209.52 548.66 218.205 540.413C218.205 540.413 203.706 534.726 194.842 542.269M175.767 570.374C175.767 570.374 162.743 583.703 147.659 571.565C134.506 560.976 147.431 548.66 138.745 540.413C138.745 540.413 153.245 534.726 162.109 542.269M211.679 538.756C211.679 538.756 218.206 532.88 214.373 521.686C211.243 512.555 210.649 505.43 212.778 499.297C212.778 499.297 197.635 501.42 191.247 506.76M144.618 538.756C144.618 538.756 138.092 532.88 141.934 521.686C145.064 512.555 145.658 505.43 143.529 499.297C143.529 499.297 158.682 501.42 165.06 506.76M201.012 502.006C201.012 502.006 199.685 491.437 192.732 484.748C185.789 478.069 181.709 473.712 178.995 471.062C178.995 471.062 174.588 475.994 162.446 485.532C154.651 491.655 155.295 501.996 155.295 501.996M582.298 546.278C590.004 546.249 604.791 542.279 598.65 523.046C595.243 512.387 585.299 504.18 585.299 504.18C585.299 504.18 573.048 510.749 568.7 523.73C566.868 529.209 566.353 546.338 582.308 546.278L582.298 546.278ZM582.298 546.278L582.298 574.493M593.857 513.687C593.857 513.687 609.485 498.225 583.943 477.969C583.943 477.969 558.281 493.948 574.267 513.687M585.765 546.278C585.765 546.278 597.402 558.178 610.882 547.34C622.638 537.883 611.09 526.876 618.844 519.513C618.844 519.513 605.89 514.431 597.977 521.17M580.932 546.278C580.932 546.278 569.295 558.178 555.815 547.34C544.069 537.882 555.607 526.876 547.852 519.513C547.852 519.513 560.807 514.431 568.72 521.17M613.011 518.024C613.011 518.024 618.835 512.774 615.418 502.77C612.625 494.612 612.09 488.251 613.992 482.773C613.992 482.773 600.463 484.668 594.758 489.442M553.101 518.024C553.101 518.024 547.278 512.774 550.695 502.77C553.488 494.612 554.022 488.251 552.121 482.773C552.121 482.773 565.65 484.668 571.354 489.442M603.473 485.204C603.473 485.204 602.285 475.756 596.085 469.792C589.885 463.817 586.24 459.927 583.814 457.575C583.814 457.575 579.872 461.981 569.027 470.506C562.065 475.975 562.639 485.214 562.639 485.214M384.96 253.631C384.96 253.631 381.315 262.563 366.43 260.885M377.839 230.289C377.839 230.289 392.883 237.474 397.301 221.704C398.172 218.568 399.985 210.559 401.896 207.87C401.896 207.87 399.103 207.671 392.874 210.51M363.805 230.289C363.805 230.289 348.761 237.474 344.344 221.704C343.472 218.568 341.66 210.559 339.748 207.87C339.748 207.87 356.05 209.15 359.626 214.995M392.874 210.519C392.874 210.519 400.698 207.969 398.133 196.03C396.895 190.284 398.925 184.111 400.173 183.277C400.173 183.277 384.96 182.047 377.839 201.677M358.506 194.472C358.506 194.472 353.139 184.994 338.718 186.781C338.718 186.781 340.956 187.227 341.798 194.472C343.472 208.783 348.513 209.289 348.513 209.289M382.91 192.219C382.91 192.219 388.674 179.982 369.965 169.88C369.965 169.88 359.903 176.926 356.734 190.264M392.913 184.597C392.913 184.597 396.647 175.417 394.022 162.933C394.022 162.933 387.684 164.729 381.276 168.55M347.751 186.791C347.751 186.791 341.442 178.295 344.066 165.801C344.066 165.801 359.636 165.801 362.845 177.233M382.316 166.535C382.316 166.535 379.275 154.388 367.856 150.438C367.856 150.438 357.011 157.951 355.417 168.55M371.402 231.499C371.402 231.499 370.867 253.631 398.549 258.305C419.724 261.888 445.662 238.278 451.367 275.226M359.626 258.781C362.736 256.102 369.035 239.945 334.776 239.469C334.776 239.469 345.007 271.425 359.626 258.781ZM359.626 258.781L350.078 250.604M409.255 249.244C409.255 249.244 438.284 253.502 439.472 219.898C439.472 219.898 393.785 212.991 409.255 249.244ZM409.255 249.244L420.813 235.896M613.348 235.707C613.348 235.707 609.238 240.431 600.443 236.273M613.853 219.868C613.853 219.868 621.598 227.441 627.61 218.677C628.808 216.941 631.591 212.395 633.324 211.145C633.324 211.145 631.651 210.44 627.223 210.867M605.227 216.921C605.227 216.921 594.481 218.171 595.065 207.562C595.184 205.448 595.748 200.149 595.134 198.094C595.134 198.094 604.88 202.302 605.86 206.649M627.224 210.877C627.224 210.877 632.562 210.956 633.483 203.076C633.929 199.285 636.464 195.911 637.405 195.673C637.405 195.673 628.313 191.723 619.835 202.292M609.465 193.797C609.465 193.797 608.148 186.84 598.908 184.915C598.908 184.915 600.185 185.659 599.195 190.284C597.234 199.434 600.225 200.804 600.225 200.804M624.926 197.539C624.926 197.539 631.027 191.227 621.637 181.094C621.637 181.094 613.982 183.307 609.247 190.84M632.671 194.958C632.671 194.958 636.88 190.105 637.89 181.878C637.89 181.878 633.621 181.65 628.877 182.652M604.454 186.82C604.454 186.82 602.354 180.28 606.573 173.145C606.573 173.145 616.141 176.41 615.725 184.111M629.937 181.63C629.937 181.63 630.611 173.532 624.421 168.699C624.421 168.699 616.18 171.041 612.991 177.214M609.644 219.263C609.644 219.263 604.692 232.75 620.716 241.434C632.978 248.083 653.855 239.022 649.636 262.93M596.699 233.554C599.175 232.561 606.425 223.957 585.468 216.464C585.468 216.464 585.072 238.248 596.699 233.554ZM596.699 233.554L592.549 226.527M629.194 238.119C629.194 238.119 646.15 246.832 653.905 226.428C653.905 226.428 627.273 212.584 629.194 238.119ZM629.194 238.119L639.089 232.333M494.984 654.285C494.984 654.285 494.737 662.571 482.267 665.717M482.228 637.681C482.228 637.681 496.49 638.902 495.291 624.889C495.054 622.11 494.083 615.113 494.816 612.374C494.816 612.374 492.508 613.059 488.349 617.227M470.947 641.919C470.947 641.919 461.014 652.25 452.714 640.907C451.06 638.654 447.197 632.759 444.85 631.171C444.85 631.171 458.34 627.271 462.985 630.883M488.359 617.227C488.359 617.227 493.885 612.811 488.22 603.978C485.496 599.731 485.259 594.153 486.011 593.111C486.011 593.111 473.413 596.724 473.602 614.657M455.883 614.726C455.883 614.726 448.703 608.732 437.65 614.528C437.65 614.528 439.581 614.21 442.443 619.778C448.099 630.784 452.308 629.662 452.308 629.662M474.83 605.526C474.83 605.526 475.771 593.945 457.686 591.484C457.686 591.484 451.714 600.197 453.189 611.878M480.584 596.376C480.584 596.376 480.822 587.871 474.949 578.622C474.949 578.622 470.403 581.976 466.391 586.998M444.919 611.799C444.919 611.799 437.283 606.876 435.629 596.039C435.629 596.039 448.148 591.325 454.18 599.552M466.609 585.062C466.609 585.062 460.508 576.21 450.129 576.498C450.129 576.498 443.671 585.827 445.583 594.828M477.415 640.599C477.415 640.599 483.654 658.552 507.325 653.937C525.429 650.404 539.166 623.579 554.894 651.565M476.177 666.094C477.87 662.998 478.068 648.102 450.376 658.085C450.376 658.085 468.233 680.683 476.177 666.094ZM476.177 666.094L466.035 662.412M513.198 643.408C513.198 643.408 537.829 638.039 528.658 610.667C528.658 610.667 489.844 618.934 513.198 643.408ZM513.198 643.408L518.467 629.176M89.0466 303.143C89.0466 303.143 97.9306 299.411 107.26 311.142M77.6075 324.679C77.6075 324.679 72.0315 308.939 57.7895 316.957C54.9569 318.555 48.024 322.942 44.7755 323.478C44.7755 323.478 46.6078 325.602 53.0256 328.003M87.5412 334.623C87.5412 334.623 103.249 340.2 95.2466 354.481C93.652 357.32 89.2744 364.267 88.7297 367.512C88.7297 367.512 78.1126 355.057 79.7071 348.388M53.0256 328.013C53.0256 328.013 45.6966 324.272 39.0806 334.533C35.9014 339.466 30.1076 342.403 28.6418 342.106C28.6418 342.106 38.526 353.757 57.4131 344.914M66 363.711C66 363.711 63.108 374.221 74.567 383.173C74.567 383.173 73.2993 381.267 77.8156 375.551C86.7391 364.247 83.5203 360.307 83.5203 360.307M47.1625 348.011C47.1625 348.011 34.4457 352.586 40.5565 372.98C40.5565 372.98 52.6493 375.124 64.2866 367.939M34.7131 346.304C34.7131 346.304 25.6014 350.154 18.6388 360.833C18.6388 360.833 24.3832 364.048 31.6131 365.894M68.1888 376.761C68.1888 376.761 66.6537 387.232 55.987 394.218C55.987 394.218 44.9836 383.192 50.7775 372.831M29.4541 366.589C29.4541 366.589 23.0363 377.327 28.3151 388.214C28.3151 388.214 41.2894 390.586 49.8961 384.224M83.0152 328.39C83.0152 328.39 99.0102 313.117 82.7379 290.202C70.2885 272.665 35.2974 270.978 57.334 240.808M110.588 317.444C106.498 317.136 90.6412 324.093 114.53 348.705C114.53 348.705 129.841 318.863 110.588 317.444ZM110.588 317.444L111.568 329.988M68.7731 289.021C68.7731 289.021 51.2528 265.44 26.7006 288.356C26.7006 288.356 54.1249 325.612 68.7731 289.021ZM68.7731 289.021L51.1834 290.271M507.087 382.607C496.519 370.211 486.962 378.607 486.962 378.607M507.087 382.607C507.087 382.607 532.253 371.105 528.559 421.133C528.559 421.133 483.733 400.361 507.087 382.607ZM520.349 416.677C520.349 416.677 522.231 435.99 543.722 441.319M543.722 441.319C543.722 441.319 541.187 414.107 529.134 410.841M543.722 441.319L548.318 428.705C548.318 428.705 549.704 418.384 541.692 409.403M500.352 393.474C500.352 393.474 486.912 401.562 500.273 419.188C500.273 419.188 505.265 415.238 507.671 407.219M516.536 381.972C516.536 381.972 529.351 377.555 536.413 389.891C536.413 389.891 534.571 394.169 526.816 394.169M507.672 408.172C507.672 408.172 500.352 425.738 514.238 433.499C514.238 433.499 521.864 428.695 520.349 416.667M532.838 393.017C532.838 393.017 540.999 396.977 544.287 404.549C544.287 404.549 543.712 411.903 533.244 412.588M516.536 431.395C516.536 431.395 520.507 439.354 529.599 440.902L543.732 441.319M466.084 382.607C476.652 370.211 486.21 378.607 486.21 378.607M466.084 382.607C466.084 382.607 440.928 371.105 444.612 421.133C444.612 421.133 489.428 400.361 466.084 382.607ZM452.823 416.677C452.823 416.677 450.941 435.99 429.459 441.319M429.459 441.319C429.459 441.319 431.995 414.107 444.048 410.841M429.459 441.319L443.582 440.902C452.674 439.354 456.646 431.395 456.646 431.395M429.459 441.319L424.864 428.705C424.864 428.705 423.487 418.384 431.489 409.403M472.819 393.474C472.819 393.474 486.259 401.562 472.898 419.188C472.898 419.188 467.907 415.238 465.5 407.219M456.646 381.972C456.646 381.972 443.83 377.555 436.768 389.891C436.768 389.891 438.61 394.169 446.355 394.169M465.5 408.172C465.5 408.172 472.819 425.738 458.943 433.499C458.943 433.499 451.317 428.695 452.823 416.667M440.344 393.017C440.344 393.017 432.173 396.977 428.895 404.549C428.895 404.549 429.469 411.903 439.938 412.588M487.002 378.607L487.002 353.727M494.063 369.09C494.063 369.09 500.293 343.565 524.647 352.367C524.647 352.367 518.447 374.072 494.063 369.09ZM494.063 369.09L507.087 361.667M479.267 369.09C479.267 369.09 473.037 343.565 448.693 352.367C448.693 352.367 454.893 374.072 479.267 369.09ZM479.267 369.09L467.431 361.667M123.582 443.651C139.24 448.058 142.529 435.751 142.529 435.751M123.582 443.651C123.582 443.651 109.053 467.241 84.3521 423.604C84.3521 423.604 133.13 415.883 123.582 443.651ZM93.6522 422.721C93.6522 422.721 81.3712 407.725 60.5528 415.268C60.5528 415.268 77.7661 436.466 89.5915 432.466M123.146 430.859C123.146 430.859 129.822 416.647 108.934 409.452C108.934 409.452 106.973 415.516 109.429 423.525M116.085 449.437C116.085 449.437 107.884 460.255 95.1674 453.933C95.1674 453.933 94.3256 449.348 100.763 445.031M108.904 422.721C108.904 422.721 105.23 404.043 89.3835 405.333C89.3835 405.333 85.719 413.571 93.6423 422.731M96.4053 449.348C96.4053 449.348 87.4224 450.598 80.4895 446.142C80.4895 446.142 76.8944 439.711 85.2039 433.31M88.6506 408.36C88.6506 408.36 80.9354 403.964 72.5169 407.745L60.5429 415.278M60.5528 415.278L63.7419 428.318C63.7419 428.318 68.3176 437.667 79.9549 440.664M157.662 420.796C155.751 436.982 143.153 435.335 143.153 435.335M157.662 420.796C157.662 420.796 184.948 416.329 154.116 376.811C154.116 376.811 128.396 419.049 157.662 420.796ZM149.769 385.088C149.769 385.088 140.617 367.998 155.503 351.583M155.503 351.583C155.503 351.583 168.497 375.61 160.297 385.038M155.503 351.583L143.994 359.801C137.309 366.152 138.418 374.985 138.418 374.985M155.503 351.583L166.328 359.513C166.328 359.513 173.201 367.323 171.538 379.242M146.025 415.516C146.025 415.516 130.366 416.29 131.684 394.188C131.684 394.188 138.022 394.685 144.48 400.014M165.853 416.052C165.853 416.052 178.956 412.578 177.965 398.396C177.965 398.396 174.063 395.876 167.625 400.183M143.945 399.22C143.945 399.22 128.108 388.7 135.338 374.518C135.338 374.518 144.341 374.26 149.759 385.088M173.271 397.791C173.271 397.791 177.856 389.941 176.391 381.823C176.391 381.823 171.825 376.037 162.743 381.297M142.499 435.771L156.305 456.444M141.915 447.621C141.915 447.621 150.907 472.303 125.791 478.565C125.791 478.565 118.888 457.079 141.915 447.621ZM141.915 447.621L135.21 461.048M154.215 439.364C154.215 439.364 173.558 457.108 188.909 436.218C188.909 436.218 171.716 421.639 154.215 439.364ZM154.215 439.364L168.17 438.937M89.0072 538.805C89.0072 538.805 115.154 536.92 114.263 562.842C114.263 562.842 91.7506 563.586 89.0072 538.805ZM89.0072 538.805L100.04 548.958M492.211 460.304C492.211 460.304 518.358 458.419 517.467 484.341C517.467 484.341 494.955 485.085 492.211 460.304ZM492.211 460.304L503.244 470.447M498.649 138.281C498.649 138.281 524.796 136.395 523.904 162.317C523.904 162.317 501.392 163.061 498.649 138.281ZM498.649 138.281L509.682 148.433M754.877 231.112C754.877 231.112 781.023 229.227 780.132 255.149C780.132 255.149 757.62 255.893 754.877 231.112ZM754.877 231.112L765.91 241.255M44.4882 582.641C41.824 574.235 32.7222 564.648 11.0521 562.415C11.0521 562.415 11.6959 590.283 32.5736 594.629M65.0193 602.033C61.3746 588.218 47.2712 581.212 28.1267 579.237C28.1267 579.237 30.9692 606.251 51.7479 613.039M73.4477 608.841C73.6557 598.163 79.4891 586.382 79.4891 586.382C104.418 609.893 79.8358 627.201 79.8358 627.201L83.6687 630.754M78.5979 628.531C78.5979 628.531 63.2664 654.423 37.9517 631.339C37.9517 631.339 49.2324 624.611 59.8396 623.569M49.0641 584.487C49.0641 584.487 47.9647 576.617 53.4813 567.705C53.4813 567.705 72.913 578.691 75.6862 596.277M34.2971 600.465C34.2971 600.465 26.3838 599.979 17.9455 606.162C17.9455 606.162 30.3652 624.73 48.0836 626.149M51.6587 571.079C48.8559 564.589 31.9101 552.759 31.9101 552.759C28.5526 560.172 31.3554 568.052 31.3554 568.052M17.1729 583.405C17.1729 583.405 9.11101 581.222 1.9999 585.142C1.9999 585.142 15.0633 601.16 21.7486 603.462M31.6922 553.007L19.5003 541.703M718.262 75.5194L718.262 51.6514M718.262 115.236L718.262 89.0759M718.262 164.917L718.262 129.617M718.648 152.125C747.36 168.788 733.87 198.809 733.87 198.809L729.007 196.606M718.063 152.125C686.341 168.788 703.168 198.809 703.168 198.809L708.298 196.735M718.064 115.236C761.869 123.741 747.36 175.854 747.36 175.854C747.36 175.854 743.735 173.72 736.178 170.922M718.064 75.5193C774.16 75.4796 759.997 138.836 759.997 138.836C759.997 138.836 749.657 132.197 742.418 130.093M718.44 75.5193C662.343 75.4796 676.506 138.836 676.506 138.836C676.506 138.836 686.836 132.197 694.076 130.093M718.499 115.236C674.693 123.741 689.203 175.854 689.203 175.854C689.203 175.854 692.828 173.72 700.385 170.922M728.294 64.8706C728.294 64.8706 756.155 60.0077 768.079 91.6166C776.676 114.413 772.239 144.95 772.13 220.017M707.278 64.9102C707.278 64.9102 680.577 60.0076 668.652 91.6165C660.045 114.413 664.492 144.95 664.611 220.017M494.984 81.6525C494.984 81.6525 494.737 89.9393 482.268 93.0853M482.228 65.0492C482.228 65.0492 496.49 66.2699 495.291 52.2568C495.054 49.478 494.083 42.4813 494.816 39.7422C494.816 39.7422 492.508 40.427 488.349 44.5952M470.947 69.2869C470.947 69.2869 461.014 79.618 452.714 68.2746C451.06 66.0218 447.198 60.1267 444.85 58.5388C444.85 58.5388 458.34 54.6386 462.985 58.251M455.883 42.0942C455.883 42.0942 448.703 36.0999 437.65 41.8957C437.65 41.8957 439.581 41.5782 442.444 47.1457C448.099 58.1517 452.308 57.0303 452.308 57.0303M477.415 67.9668C477.415 67.9668 483.654 85.9199 507.325 81.3051C525.43 77.772 539.166 50.9466 554.894 78.9332M476.177 93.4624C477.87 90.3661 478.068 75.4697 450.377 85.4535C450.377 85.4535 468.234 108.051 476.177 93.4624ZM476.177 93.4624L466.035 89.7805M513.198 70.7755C513.198 70.7755 537.829 65.4065 528.658 38.0353C528.658 38.0353 489.844 46.3022 513.198 70.7755ZM513.198 70.7755L518.467 56.544M587.112 128.098C603.186 130.56 604.949 117.946 604.949 117.946M587.112 128.098C587.112 128.098 575.574 153.286 545.723 113.013C545.723 113.013 593.193 99.3675 587.112 128.098ZM554.855 110.999C554.855 110.999 540.83 97.6207 521.092 107.654M521.092 107.654C521.092 107.654 540.761 126.59 552.012 121.161M521.092 107.654L532.055 98.7123C539.939 93.9288 548.14 97.3527 548.14 97.3527M521.092 107.654L525.846 120.208C525.846 120.208 531.531 128.922 543.445 130.48M585.121 115.455C585.121 115.455 590.014 100.528 568.403 95.9434C568.403 95.9434 567.205 102.196 570.612 109.847M580.377 134.757C580.377 134.757 573.563 146.498 560.173 141.784C560.173 141.784 558.776 137.338 564.64 132.266M569.998 109.133C569.998 109.133 564.075 91.0508 548.506 94.2663C548.506 94.2663 545.872 102.9 554.855 111.009M560.836 137.09C560.836 137.09 552.071 139.442 544.643 135.859C544.643 135.859 540.286 129.914 547.753 122.541M618.151 101.243C618.231 117.549 605.524 117.449 605.524 117.449M618.151 101.243C618.151 101.243 644.694 93.4723 609.268 58.0227C609.268 58.0227 588.895 103.099 618.151 101.243ZM605.95 66.7661C605.95 66.7661 594.778 50.9269 607.554 32.8151C607.554 32.8151 623.391 55.0654 616.398 65.4363M605.95 97.4223C605.95 97.4223 590.509 100.102 589.123 78.0103C589.123 78.0103 595.481 77.7225 602.533 82.2282M625.698 95.5367C625.698 95.5367 638.276 90.4852 635.573 76.5217C635.573 76.5217 631.383 74.4972 625.53 79.5685M601.909 81.5037C601.909 81.5037 584.913 73.0085 590.351 58.0426C590.351 58.0426 599.254 56.683 605.959 66.7661M630.839 76.5018C630.839 76.5018 634.434 68.1456 631.978 60.2657C631.978 60.2657 626.748 55.0852 618.379 61.4169M593.46 58.132C593.46 58.132 591.282 49.5078 597.145 42.3821L607.564 32.8151L619.27 39.3552C619.27 39.3552 627.045 46.2625 626.847 58.3007M604.929 117.966L621.152 136.792M605.791 129.795C605.791 129.795 617.725 153.187 593.559 162.476C593.559 162.476 584.091 141.992 605.791 129.795ZM605.791 129.795L600.77 143.947M616.993 120.099C616.993 120.099 638.356 135.333 651.043 112.726C651.043 112.726 632.195 100.36 616.993 120.099ZM616.993 120.099L630.789 117.966M801 441.279C801 441.279 794.374 441.111 791.74 442.639C785.589 446.222 787.808 451.888 785.064 458.24C785.064 458.24 785.886 454.499 793.512 451.323C801.129 448.137 801 441.289 801 441.289L801 441.279ZM183.106 90.3065C183.106 90.3065 158.94 78.1095 183.106 47.4236C183.106 47.4236 205.538 72.929 183.106 90.3065ZM307.164 321.255C307.164 321.255 318.781 327.12 307.164 341.867C307.164 341.867 296.378 329.611 307.164 321.255ZM348.384 408.708C348.384 408.708 324.219 396.511 348.384 365.825C348.384 365.825 370.817 391.33 348.384 408.708ZM623.945 395.409C623.945 395.409 648.111 407.606 623.945 438.292C623.945 438.292 601.512 412.787 623.945 395.409ZM286.554 210.509C286.554 210.509 305.381 192.437 286.247 174.375C286.247 174.375 267.429 188.944 286.554 210.509ZM241.906 372.067C241.906 372.067 223.078 390.139 242.213 408.202C242.213 408.202 261.031 393.633 241.906 372.067ZM525.281 312.789C525.281 312.789 544.108 294.717 524.974 276.655C524.974 276.655 506.156 291.224 525.281 312.789ZM736.029 355.851C736.029 355.851 714.518 376.494 736.376 397.126C736.376 397.126 757.878 380.483 736.029 355.851ZM436.303 518.262C436.303 518.262 448.624 533.218 438.838 543.787C438.838 543.787 426.785 536.483 436.303 518.262ZM448.742 504.547C448.742 504.547 461.063 519.503 451.278 530.072C451.278 530.072 439.234 522.778 448.742 504.547ZM425.339 533.139C425.339 533.139 435.253 550.764 422.704 558.654C422.704 558.654 412.691 547.529 425.339 533.139ZM431.41 515.602C431.41 515.602 414.009 507.107 406.046 519.125C406.046 519.125 415.95 529.149 431.41 515.602ZM444.246 500.527C444.246 500.527 426.844 492.032 418.881 504.05C418.881 504.05 428.795 514.074 444.246 500.527ZM420.417 530.032C420.417 530.032 400.965 524.623 396.33 538.726C396.33 538.726 409.512 545.792 420.417 530.032ZM411.988 546.04C411.988 546.04 417.069 556.887 397.707 567.338C397.707 567.338 397.459 546.229 411.988 546.04ZM479.831 518.262C479.831 518.262 467.51 533.218 477.296 543.787C477.296 543.787 489.349 536.483 479.831 518.262ZM467.382 504.547C467.382 504.547 455.061 519.503 464.846 530.072C464.846 530.072 476.889 522.778 467.382 504.547ZM490.795 533.139C490.795 533.139 480.881 550.764 493.429 558.654C493.429 558.654 503.442 547.529 490.795 533.139ZM484.724 515.602C484.724 515.602 502.125 507.107 510.088 519.125C510.088 519.125 500.184 529.149 484.724 515.602ZM471.878 500.527C471.878 500.527 489.28 492.032 497.242 504.051C497.242 504.051 487.338 514.074 471.878 500.527ZM495.707 530.032C495.707 530.032 515.159 524.623 519.794 538.726C519.794 538.726 506.602 545.792 495.707 530.032ZM504.146 546.04C504.146 546.04 499.065 556.887 518.427 567.338C518.427 567.338 518.675 546.229 504.146 546.04ZM737.713 284.088C737.713 284.088 745.488 265.064 732.256 257.452C732.256 257.452 722.352 268.636 737.713 284.088ZM754.609 294.052C754.609 294.052 762.384 275.027 749.152 267.415C749.152 267.415 739.248 278.6 754.609 294.052ZM721.936 272.487C721.936 272.487 726.432 251.527 711.249 247.488C711.249 247.488 704.614 261.908 721.936 272.487ZM733.593 288.316C733.593 288.316 718.648 302.399 706.813 292.752C706.813 292.752 713.696 279.483 733.593 288.316ZM751.321 299.531C751.321 299.531 736.376 313.613 724.541 303.967C724.541 303.967 731.424 290.698 751.321 299.531ZM717.935 277.181C717.935 277.181 699.949 288.793 690.817 275.98C690.817 275.98 701.95 264.667 717.935 277.181ZM704.376 263.634C704.376 263.634 706.109 251.05 683.231 246.584C683.231 246.584 689.609 268.031 704.376 263.634ZM683.756 535.421C683.756 535.421 657.272 536.404 653.945 516.942C653.945 516.942 671.891 509.886 683.756 535.421ZM688.282 560.391C688.282 560.391 661.798 561.363 658.471 541.912C658.471 541.912 676.417 534.856 688.282 560.391ZM676.734 511.097C676.734 511.097 649.369 507.236 651.231 486.991C651.231 486.991 671.633 485.353 676.734 511.097ZM690.699 532.295C690.699 532.295 714.399 520.406 707.981 501.738C707.981 501.738 688.866 504.19 690.699 532.295ZM696.383 558.833C696.383 558.833 720.084 546.943 713.666 528.276C713.666 528.276 694.541 530.727 696.383 558.833ZM684.191 508.318C684.191 508.318 706.248 491.625 694.809 474.843C694.809 474.843 676.169 483.329 684.191 508.318ZM673.842 485.81C673.842 485.81 657.847 482.326 662.621 452.533C662.621 452.533 685.727 469.832 673.842 485.81ZM287.683 547.598C287.683 547.598 295.457 528.573 282.235 520.951C282.235 520.951 272.331 532.146 287.683 547.598ZM304.579 557.562C304.579 557.562 312.354 538.537 299.122 530.925C299.122 530.925 289.218 542.11 304.579 557.562ZM271.905 535.997C271.905 535.997 276.402 515.037 261.219 510.997C261.219 510.997 254.583 525.417 271.905 535.997ZM283.562 551.826C283.562 551.826 268.617 565.909 256.782 556.262C256.782 556.262 263.665 542.993 283.562 551.826ZM301.291 563.04C301.291 563.04 286.345 577.123 274.51 567.477C274.51 567.477 281.393 554.208 301.291 563.04ZM267.904 540.691C267.904 540.691 249.918 552.302 240.787 539.49C240.787 539.49 251.919 528.176 267.904 540.691ZM254.345 527.144C254.345 527.144 256.079 514.56 233.2 510.094C233.2 510.094 239.578 531.541 254.345 527.144ZM133.972 269.658C133.972 269.658 147.837 256.082 139.221 244.51C139.221 244.51 126.445 250.495 133.972 269.658ZM144.896 284.644C144.896 284.644 158.762 271.068 150.135 259.496C150.135 259.496 137.359 265.47 144.896 284.644ZM124.642 253.67C124.642 253.67 136.388 237.186 124.741 227.976C124.741 227.976 113.589 237.99 124.642 253.67ZM128.811 271.782C128.811 271.782 110.578 278.372 103.932 265.56C103.932 265.56 114.867 256.638 128.811 271.782ZM139.993 288.167C139.993 288.167 121.76 294.757 115.114 281.945C115.114 281.945 126.048 273.023 139.993 288.167ZM119.413 256.231C119.413 256.231 99.4658 259.536 96.356 244.996C96.356 244.996 110.241 239.379 119.413 256.231ZM112.717 239.389C112.717 239.389 118.937 229.137 100.773 216.663C100.773 216.663 98.2773 237.653 112.717 239.389ZM411.79 316.491C411.79 316.491 413.92 297.178 428.32 296.851C428.32 296.851 431.489 310.616 411.79 316.491ZM393.27 317.106C393.27 317.106 395.399 297.804 409.8 297.466C409.8 297.466 412.979 311.231 393.27 317.106ZM430.103 314C430.103 314 435.818 294.568 450.238 298.092C450.238 298.092 449.238 313.067 430.103 314ZM413.296 321.86C413.296 321.86 419.347 340.31 433.52 337.66C433.52 337.66 433.797 323.537 413.296 321.86ZM393.537 323.14C393.537 323.14 399.589 341.59 413.751 338.94C413.751 338.94 414.029 324.818 393.537 323.14ZM431.311 319.707C431.311 319.707 441.007 337.481 454.348 330.981C454.348 330.981 450.208 316.561 431.311 319.707ZM448.673 314.606C448.673 314.606 452.902 303.381 473.899 310.03C473.899 310.03 458.944 324.937 448.673 314.606ZM475.067 197.271C475.067 197.271 470.284 201.866 467.303 202.511C460.35 204.009 457.498 199.871 451.209 197.032C451.209 197.032 455.012 197.687 462.786 194.899C470.561 192.11 475.067 197.271 475.067 197.271ZM468.184 184.29C468.184 184.29 463.4 188.885 460.419 189.53C453.466 191.038 450.614 186.89 444.325 184.051C444.325 184.051 448.128 184.706 455.903 181.918C463.678 179.129 468.184 184.29 468.184 184.29ZM458.478 172.986C458.478 172.986 453.694 177.581 450.723 178.226C443.771 179.724 440.918 175.586 434.629 172.748C434.629 172.748 438.422 173.403 446.197 170.614C453.972 167.825 458.478 172.986 458.478 172.986ZM447.306 161.186C447.306 161.186 442.523 165.781 439.542 166.426C432.589 167.924 429.737 163.786 423.447 160.948C423.447 160.948 427.251 161.603 435.025 158.814C442.8 156.025 447.306 161.186 447.306 161.186ZM474.741 189.411C474.741 189.411 480.198 185.639 481.426 182.851C484.298 176.33 479.168 173.045 477.652 166.307C477.652 166.307 479.178 169.81 474.889 176.886C470.601 183.952 474.731 189.411 474.731 189.411L474.741 189.411ZM466.164 176.042C466.164 176.042 470.858 171.358 471.561 168.381C473.215 161.454 467.59 159.151 464.896 152.78C464.896 152.78 467.025 155.956 464.074 163.677C461.123 171.408 466.164 176.033 466.164 176.033L466.164 176.042ZM455.893 165.85C455.893 165.85 460.043 160.68 460.429 157.653C461.311 150.577 455.467 148.909 452.1 142.875C452.1 142.875 454.566 145.803 452.466 153.802C450.367 161.801 455.893 165.85 455.893 165.85ZM444.018 151.946C444.018 151.946 446.445 145.764 445.9 142.766C444.642 135.75 438.561 135.909 433.55 131.155C433.55 131.155 436.768 133.209 437.155 141.476C437.541 149.743 444.018 151.956 444.018 151.956L444.018 151.946ZM39.4274 447.809C39.4274 447.809 45.6769 445.606 48.658 446.251C55.6106 447.76 56.502 452.712 61.0579 457.892C61.0579 457.892 57.8688 455.729 49.6385 455.044C41.4082 454.369 39.4274 447.809 39.4274 447.809ZM40.3583 462.487C40.3583 462.487 46.6078 460.274 49.579 460.929C56.5316 462.438 57.423 467.39 61.9789 472.571C61.9789 472.571 58.7898 470.397 50.5595 469.722C42.3292 469.047 40.3484 462.487 40.3484 462.487L40.3583 462.487ZM44.5378 476.788C44.5378 476.788 50.7873 474.575 53.7684 475.22C60.721 476.729 61.6124 481.681 66.1683 486.871C66.1683 486.871 62.9792 484.698 54.7489 484.023C46.5186 483.348 44.5378 476.788 44.5378 476.788ZM49.8564 492.161C49.8564 492.161 56.1059 489.948 59.087 490.593C66.0396 492.101 66.931 497.054 71.4869 502.244C71.4869 502.244 68.2978 500.071 60.0675 499.396C51.8372 498.721 49.8564 492.161 49.8564 492.161ZM36.4859 455.104C36.4859 455.104 29.969 456.285 27.6911 458.319C22.3924 463.073 25.7103 468.184 24.3138 474.952C24.3138 474.952 24.3633 471.122 31.1872 466.457C38.0012 461.793 36.4859 455.114 36.4859 455.114L36.4859 455.104ZM38.8035 470.834C38.8035 470.834 32.5936 473.166 30.7316 475.578C26.364 481.205 30.5534 485.631 30.385 492.548C30.385 492.548 29.7511 488.777 35.6242 482.961C41.4974 477.146 38.8134 470.844 38.8134 470.844L38.8035 470.834ZM43.9535 484.361C43.9535 484.361 38.0408 487.358 36.4462 489.958C32.7322 496.032 37.3673 499.972 37.9517 506.869C37.9517 506.869 36.9117 503.187 42.1114 496.756C47.311 490.335 43.9535 484.361 43.9535 484.361ZM49.0443 501.937C49.0443 501.937 44.2903 506.561 43.5475 509.519C41.8044 516.426 47.4002 518.798 50.0149 525.199C50.0149 525.199 47.9251 521.994 50.9756 514.312C54.026 506.631 49.0443 501.927 49.0443 501.927L49.0443 501.937ZM378.473 108.518C378.473 108.518 386.218 122.868 401.797 122.144C417.376 121.429 415.019 97.7497 415.019 97.7497C415.019 97.7497 410.919 107.436 401.797 107.436C392.676 107.436 388.962 99.1887 378.473 108.508L378.473 108.518ZM365.192 108.518C365.192 108.518 357.447 122.868 341.868 122.144C326.289 121.429 328.656 97.7497 328.656 97.7497C328.656 97.7497 332.756 107.436 341.868 107.436C350.979 107.436 354.703 99.1887 365.192 108.508L365.192 108.518ZM220.711 329.234C220.711 329.234 228.456 343.584 244.035 342.86C259.615 342.145 257.257 318.466 257.257 318.466C257.257 318.466 253.157 328.152 244.035 328.152C234.914 328.152 231.2 319.905 220.711 329.224L220.711 329.234ZM207.43 329.234C207.43 329.234 199.685 343.584 184.106 342.86C168.527 342.145 170.894 318.466 170.894 318.466C170.894 318.466 174.994 328.152 184.106 328.152C193.218 328.152 196.942 319.905 207.43 329.224L207.43 329.234ZM185.047 590.332C185.047 590.332 193.713 606.39 211.164 605.586C228.615 604.782 225.96 578.284 225.96 578.284C225.96 578.284 221.365 589.131 211.164 589.131C200.963 589.131 196.793 579.892 185.047 590.332ZM170.181 590.332C170.181 590.332 161.515 606.39 144.064 605.586C126.623 604.782 129.267 578.284 129.267 578.284C129.267 578.284 133.863 589.131 144.064 589.131C154.265 589.131 158.435 579.892 170.181 590.332ZM589.221 564.093C589.221 564.093 596.966 578.433 612.546 577.719C628.125 577.004 625.758 553.325 625.758 553.325C625.758 553.325 621.657 563.011 612.546 563.011C603.434 563.011 599.71 554.764 589.221 564.083L589.221 564.093ZM575.94 564.093C575.94 564.093 568.195 578.433 552.616 577.719C537.037 577.004 539.394 553.325 539.394 553.325C539.394 553.325 543.495 563.011 552.616 563.011C561.738 563.011 565.452 554.764 575.94 564.083L575.94 564.093ZM371.54 194.472C371.54 194.472 384.564 206.56 384.95 218.647C385.337 230.735 373.462 231.509 372.699 231.509C371.936 231.509 360.448 232.274 359.675 220.384C359.2 213.06 362.547 203.493 371.55 194.482L371.54 194.472ZM617.478 196.536C617.478 196.536 622.955 206.699 620.657 214.211C618.369 221.724 610.912 219.7 610.436 219.541C609.961 219.382 602.741 217.437 604.761 209.964C605.999 205.369 610.06 200.188 617.478 196.536ZM466.371 610.776C466.371 610.776 480.485 616.552 484.437 626.159C488.388 635.766 479.068 639.974 478.454 640.202C477.84 640.43 468.838 644.529 464.628 635.19C462.043 629.444 461.845 620.74 466.362 610.766L466.371 610.776ZM56.7793 354.471C56.7793 354.471 56.1058 336.697 64.3658 327.874C72.6258 319.052 81.5692 326.922 82.104 327.467C82.6388 328.013 91.3148 335.605 83.4608 344.567C78.6276 350.075 69.5159 354.471 56.7892 354.471L56.7793 354.471ZM79.8261 627.191C79.8261 627.191 79.321 597.349 49.3612 599.403C49.3612 599.403 46.9446 626.516 79.8261 627.191ZM718.262 178.841C718.262 178.841 742.427 191.038 718.262 221.724C718.262 221.724 695.829 196.219 718.262 178.841ZM466.372 38.1443C466.372 38.1443 480.485 43.9202 484.437 53.527C488.388 63.1337 479.069 67.3416 478.455 67.5698C477.84 67.7981 468.838 71.8968 464.628 62.5581C462.043 56.8119 461.845 48.1083 466.362 38.1344L466.372 38.1443Z" stroke="#009900" stroke-width="2.19504" stroke-linecap="round" stroke-linejoin="round"/>
</svg>
