<?xml version="1.0" encoding="UTF-8"?>
<svg id="Capa_1" data-name="Capa 1" xmlns="http://www.w3.org/2000/svg" viewBox="0 0 38.75 38">
  <defs>
    <style>
      .cls-1 {
        fill: #0063B6;
        stroke-width: 0px;
      }
    </style>
  </defs>
  <path class="cls-1" d="M32.46,19.96c-.18-.2-.33-.42-.45-.65-.06,6.23-5.15,11.28-11.39,11.28s-11.4-5.11-11.4-11.4,5.11-11.4,11.4-11.4c5.41,0,9.94,3.78,11.11,8.84l1.03-7.67.02-.17c-2.94-3.43-7.3-5.61-12.16-5.61-3.79,0-7.28,1.33-10.03,3.54v3.69c0,2.17-1.13,4.15-2.9,5.28v12.92c2.91,3.99,7.63,6.58,12.93,6.58,5.58,0,10.5-2.87,13.36-7.2v-7.04c-.58-.19-1.11-.53-1.52-1h0ZM32.46,19.96"/>
  <path class="cls-1" d="M20.61,9.73c-5.22,0-9.46,4.24-9.46,9.46s4.24,9.46,9.46,9.46,9.46-4.24,9.46-9.46-4.24-9.46-9.46-9.46h0ZM20.61,9.73"/>
  <path class="cls-1" d="M38.71,1.49c0-.82-.67-1.49-1.49-1.49-.75,0-1.38.55-1.48,1.29l-2.18,16.21c-.06.43.07.86.36,1.18.28.32.69.51,1.12.51h.88v17.39c0,.78.64,1.42,1.42,1.42s1.42-.64,1.42-1.42l-.04-35.09ZM38.71,1.49"/>
  <path class="cls-1" d="M8.65,1.81c0-.53-.43-.97-.97-.97s-.97.43-.97.97v5.36h-1.42V1.81c0-.53-.43-.97-.97-.97s-.97.43-.97.97v5.36h-1.42V1.81c0-.53-.43-.97-.97-.97s-.97.43-.97.97v8.74c0,1.89,1.22,3.5,2.9,4.08v21.95c0,.78.64,1.42,1.42,1.42s1.42-.64,1.42-1.42V14.63c1.69-.59,2.9-2.2,2.9-4.08V1.81ZM8.65,1.81"/>
</svg>