<?xml version="1.0" encoding="utf-8"?>
<!-- Generator: Adobe Illustrator 28.2.0, SVG Export Plug-In . SVG Version: 6.00 Build 0)  -->
<svg version="1.1" id="Warstwa_1" xmlns="http://www.w3.org/2000/svg" xmlns:xlink="http://www.w3.org/1999/xlink" x="0px" y="0px"
	 viewBox="0 0 500 500" style="enable-background:new 0 0 500 500;" xml:space="preserve">
	 <defs>
    <style>
      .cls-1 {
        fill: #0063B6;
        stroke-width: 0px;
      }
    </style>
  </defs>
<g>
	<g>
		<path class='cls-1' d="M249.7,170.6c17.3,0,31.4-14,31.4-31.4s-14-31.4-31.4-31.4s-31.4,14-31.4,31.4S232.4,170.6,249.7,170.6L249.7,170.6z"/>
		<path class='cls-1' d="M339.2,118.9c-6-5.1-15-4.3-20.1,1.7l-49.3,58.7c-2.2,2.6-5.3,4-8.7,4h-22.8c-3.3,0-6.5-1.4-8.7-4l-49.3-58.7
			c-5.1-6-14-6.8-20.1-1.7c-6,5.1-6.8,14-1.7,20.1l56.7,67.5v171.4c0,7.9,6.4,14.4,14.4,14.4c7.9,0,14.4-6.4,14.4-14.4v-86.2h11.4
			v86.1c0,7.9,6.4,14.4,14.4,14.4c7.9,0,14.4-6.4,14.4-14.4V206.5l56.7-67.6C346,132.9,345.2,123.9,339.2,118.9L339.2,118.9z"/>
	</g>
</g>
</svg>
