<svg xmlns="http://www.w3.org/2000/svg" width="32" height="32" viewBox="0 0 32 32">
  <g id="Tripadvisor_-_ico" data-name="Tripadvisor - ico" transform="translate(-1805.909 -485.632)">
    <ellipse id="Ellipse_1" data-name="Ellipse 1" cx="16" cy="16" rx="16" ry="16" transform="translate(1805.909 485.632)" fill="#34e0a1"/>
    <path id="Path_72" data-name="Path 72" d="M1831.791,498.51l1.931-2.1h-4.281a13.375,13.375,0,0,0-15.05,0H1810.1l1.932,2.1a5.9,5.9,0,1,0,7.978,8.7l.011-.01,1.892,2.059,1.891-2.057a5.9,5.9,0,1,0,7.989-8.692Zm-15.785,8.356a3.995,3.995,0,1,1,3.995-3.995,3.994,3.994,0,0,1-3.995,3.995Zm5.9-4.11a6.521,6.521,0,0,0-4.433-5.849,11.526,11.526,0,0,1,8.865,0,6.52,6.52,0,0,0-4.432,5.849Zm5.9,4.11a3.995,3.995,0,1,1,3.995-3.995h0A4,4,0,0,1,1827.811,506.866Zm0-6.089a2.094,2.094,0,1,0,2.094,2.094h0a2.094,2.094,0,0,0-2.094-2.094Zm-9.71,2.094a2.094,2.094,0,1,1-2.095-2.094h0a2.1,2.1,0,0,1,2.095,2.094Z"/>
  </g>
</svg>
