<svg xmlns="http://www.w3.org/2000/svg" width="29" height="20" viewBox="0 0 29 20">
  <g id="Youtube_-_ico" data-name="Youtube - ico" transform="translate(-67.666 -71.238)">
    <g id="Group_11" data-name="Group 11">
      <g id="Group_10" data-name="Group 10">
        <path id="Path_70" data-name="Path 70" d="M96.068,74.368a3.606,3.606,0,0,0-2.556-2.517c-2.269-.612-11.347-.612-11.347-.612s-9.077,0-11.347.588a3.681,3.681,0,0,0-2.556,2.541,39.809,39.809,0,0,0,0,13.741,3.608,3.608,0,0,0,2.556,2.517c2.293.611,11.347.611,11.347.611s9.078,0,11.347-.588a3.606,3.606,0,0,0,2.556-2.518,37.142,37.142,0,0,0,.6-6.871,35.24,35.24,0,0,0-.6-6.894Zm0,0" fill="red"/>
      </g>
      <path id="Path_71" data-name="Path 71" d="M79.275,85.521l7.549-4.282-7.549-4.283Zm0,0" fill="#fff"/>
    </g>
  </g>
</svg>
