<?xml version="1.0" encoding="utf-8"?>
<!-- Generator: Adobe Illustrator 28.2.0, SVG Export Plug-In . SVG Version: 6.00 Build 0)  -->
<svg version="1.1" id="Warstwa_1" xmlns="http://www.w3.org/2000/svg" xmlns:xlink="http://www.w3.org/1999/xlink" x="0px" y="0px"
	 viewBox="0 0 500 500" style="enable-background:new 0 0 500 500;" xml:space="preserve">
<style type="text/css">
	.st0{fill:#05599C;}
</style>
<g>
	<path class="st0" d="M456.1,259.6c-0.4-2.2-1.9-3.2-4.7-3.2c-0.1,0-0.9,0-2.2,0c-30.2,0-60.5,0-90.7,0c-32.5,0-64.9,0-97.4,0
		c-1.7,0-3.3-0.2-4.8-0.6c-0.5-0.1-1-0.3-1.5-0.5c-1.9-0.7-3.7-1.9-5.3-3.4c-20.5-19.5-40.9-38.9-61.4-58.4
		c-13.9-13.2-27.7-26.4-41.6-39.6c-0.9-0.8-1.5-1.3-2.1-1.5c-0.9-0.3-1.7,0.3-3.1,1.6c-8.4,8.1-16.7,16.2-25.1,24.3
		c-9,8.7-18,17.4-27.1,26.2c-1,1-2.1,2-3.1,3c-6.5,6.3-13.1,12.6-19.6,19c-0.9,0.8-1.9,1.5-2.8,2.3c0.1,0.1,0.1,0.2,0.2,0.4
		l-6.4,6.2l-2.4,2.3c-0.3,0.3-0.6,0.6-0.9,0.9c0,0,0,0-0.1,0.1c-0.5,0.5-1,1-1.3,1.5c-0.3,0.4-0.5,0.8-0.7,1.3
		c-0.3,0.6-0.5,1.2-0.6,1.8c-0.1,0.3-0.1,0.6-0.2,1c-0.1,0.5-0.1,1-0.1,1.6c0,49.3,0,75.4,0,124.7c0,1.9,0.3,3.5,1,4.6
		c0.2,0.4,0.5,0.7,0.8,1c0.3,0.3,0.6,0.6,1,0.8c0.6,0.3,1.2,0.6,2,0.7c0.8,0.1,1.6,0.2,2.6,0.2c29.3,0,391.6,0,391.6,0
		c3.4,0,6.1-2.8,6.1-6.1c0,0-0.1-91.9-0.1-110.4C456.3,260.6,456.2,260.1,456.1,259.6z M135,176c1.9-1.8,3.7-3.7,5.7-5.4
		c1.9-1.8,4-1.9,6-0.1c2,1.8,4,3.7,6,5.6c1.1,1,1.5,2.2,1,3.7c-0.6,1.5-1.8,2.2-3.3,2.2c-2.2,0-4.3,0-6.5,0l0,0c-2.1,0-4.2,0-6.4,0
		c-1.6,0-2.8-0.6-3.4-2.1C133.4,178.4,133.8,177.2,135,176z M104.6,205.3c2.5-2.4,5-4.8,7.5-7.3c2.5-2.4,5.5-3.7,8.9-3.7
		c15.2,0,30.4,0,45.7,0c3.4,0,6.3,1.3,8.8,3.6c2.7,2.5,5.3,5.1,8,7.6c1.2,1.1,1.8,2.4,1.2,4c-0.6,1.7-2,2.2-3.7,2.2
		c-12.4,0-24.8,0-37.2,0c-12.2,0-24.3,0-36.5,0c-1.7,0-3.3-0.2-4-2C102.5,207.9,103.3,206.5,104.6,205.3z M82.2,233.6
		c2.5-2.4,5-4.8,7.5-7.3c2.5-2.4,5.5-3.7,8.9-3.7c15.2,0,71.6,0,86.9,0c3.4,0,6.3,1.3,8.8,3.6c2.7,2.5,5.3,5.1,8,7.6
		c1.2,1.1,1.8,2.4,1.2,4c-0.6,1.7-2,2.2-3.7,2.2c-12.4,0-43.6,0-56,0c-12.2,0-46.8,0-59,0c-1.7,0-3.3-0.2-4-2
		C80,236.2,80.8,234.8,82.2,233.6z M111.9,354c-0.1,3.1-2.2,5.3-5.4,5.3c-13.2,0-26.3,0-39.5,0c-3.2,0-5.3-2.3-5.4-5.5
		c0-2.1-0.1-4.2,0-6.4c0.1-3.3,2.2-5.5,5.6-5.5c6.5,0,13,0,19.5,0c6.4,0,12.7,0,19.1,0c4.1,0,6.1,2,6.1,6.1
		C112,350,112,352,111.9,354z M111.9,324.3c-0.1,3.1-2.2,5.3-5.4,5.3c-13.2,0-26.3,0-39.5,0c-3.1,0-5.3-2.2-5.4-5.3
		c-0.1-2.1,0-4.2,0-6.4c0-3.6,2.2-5.7,5.8-5.7c6.5,0,13,0,19.5,0l0,0c6.3,0,12.6,0,18.9,0c4.1,0,6.1,1.9,6.1,6.1
		C112,320.3,112,322.4,111.9,324.3z M61.6,288.7c0-4,2.1-6.1,6.1-6.1c8.2,0,16.5,0,24.7,0c4.4,0,8.9,0,13.3,0c4,0,6.1,2.1,6.1,6.1
		c0,1.8,0,3.6,0,5.4c0,3.8-2.1,5.9-5.9,5.9c-6.4,0-12.9,0-19.3,0c-6.2,0-12.4,0-18.5,0c-4.5,0-6.5-2-6.6-6.5
		C61.6,291.9,61.6,290.3,61.6,288.7z M146.5,270.3L146.5,270.3c-26,0-51.9,0-77.9,0c-2.6,0-5.1-0.1-6.4-2.8
		c-0.3-0.6-0.5-1.2-0.5-1.9c-0.1-2.4-0.1-4.9-0.1-7.3c0-2.1,2.2-4.4,4.5-4.7c0.7-0.1,1.4,0,2.1,0c36,0,72.1,0,108.1,0
		c16.4,0,32.7,0,49.1,0c4.6,0,6.1,1.5,6.2,6.2c0,1.8,0,3.5,0,5.2c-0.1,3.3-2.1,5.2-5.4,5.2c-14.9,0-29.7,0.1-44.6,0.1
		C169.9,270.3,158.2,270.3,146.5,270.3z M231.5,294.3c-0.1,3.8-2,5.8-5.8,5.8c-7.5,0-15,0-22.4,0c-7.4,0-14.8,0-22.3,0
		c-4.3,0-6.3-2-6.3-6.3c0-1.7,0-3.4,0-5.1c0-4,2.1-6.1,6.1-6.1c10.2,0,20.5,0,30.7,0c4.8,0,9.5,0,14.2,0c3.8,0,5.8,1.9,5.8,5.7
		C231.6,290.3,231.6,292.3,231.5,294.3z M174.7,317.8c0.1-3.3,2.2-5.5,5.5-5.5c7.7,0,15.4,0,23,0c7.3,0,14.7,0,22.1,0
		c4.5,0,6.2,1.8,6.2,6.3c0,2,0,4,0,6c-0.1,3.1-2.1,5.1-5.2,5.1c-15.4,0-30.7,0-46.1,0c-3.4,0-5.5-2.2-5.5-5.5
		C174.6,322,174.6,319.9,174.7,317.8z M231.5,354.1c-0.1,3.3-2.1,5.3-5.3,5.3c-15.3,0-30.6,0-45.9,0c-3.5,0-5.6-2.2-5.7-5.6
		c0-2.1,0-4.1,0-6.2c0-3.5,2.1-5.6,5.6-5.6c7.6,0,15.2,0,22.8,0c7.5,0,15,0,22.4,0c4,0,5.9,1.8,6,5.8
		C231.6,349.8,231.6,351.9,231.5,354.1z M312.9,293.7c0.1-2.8,2.1-4.8,4.9-4.9c3.2-0.1,6.4-0.1,9.6,0c3.7,0.1,6.5,3,6.6,6.9
		c0.1,3,0.1,6,0,9c-0.1,3.3-2.2,5.3-5.5,5.4c-3.4,0-6.7,0-10.1,0c-3.3,0-5.4-2.1-5.4-5.4c0-1.8,0-3.5,0-5.2l0,0
		C312.9,297.4,312.9,295.5,312.9,293.7z M312.9,320.8c0-3,2.1-5,5.1-5.1c1.8-0.1,3.6,0,5.4,0c1.8,0,3.5,0,5.2,0
		c3.1,0.1,5.1,1.9,5.3,4.9c0.1,3.2,0.2,6.4,0,9.5c-0.2,3.6-3.1,6.2-6.7,6.3c-3,0.1-6.1,0.1-9.1,0c-3.1-0.1-5.1-2.1-5.2-5.2
		C312.9,327.8,312.9,324.3,312.9,320.8z M281.9,295.6c0.1-3.8,3-6.7,6.8-6.9c3.1-0.1,6.1-0.1,9.2,0c3,0.1,5,2.1,5.1,5.1
		c0.1,1.8,0,3.6,0,5.4c0,1.8,0,3.5,0,5.2c-0.1,3.2-2.1,5.3-5.3,5.4c-3.5,0.1-7,0.1-10.5,0c-3.1-0.1-5.2-2.2-5.3-5.4
		C281.9,301.6,281.9,298.6,281.9,295.6z M303,331.3c-0.1,3-2.2,5.1-5.2,5.2c-3,0.1-6,0.1-9,0c-3.9-0.1-6.8-3-6.8-7
		c0-2.8,0-5.6,0-8.4c0-3.3,2.1-5.4,5.4-5.5c1.8-0.1,3.5,0,5.2,0s3.5-0.1,5.2,0c3.1,0.1,5.2,2.1,5.2,5.2
		C303.1,324.3,303.1,327.8,303,331.3z M336.2,354.1c-0.1,3.3-2.1,5.3-5.3,5.3c-15.3,0-30.6,0-45.9,0c-3.5,0-5.6-2.2-5.7-5.6
		c0-2.1,0-4.1,0-6.2c0-3.5,2.1-5.6,5.6-5.6c7.6,0,15.2,0,22.8,0c7.5,0,15,0,22.4,0c4,0,5.9,1.8,6,5.8
		C336.3,349.8,336.3,351.9,336.2,354.1z M401.7,293.8c0.1-2.9,2.1-4.9,5-5c3.1-0.1,6.3-0.1,9.4,0c3.7,0.1,6.5,2.8,6.7,6.6
		c0.1,3.2,0.1,6.4,0,9.6c-0.1,3-2.2,5-5.2,5.1c-3.6,0.1-7.1,0.1-10.7,0c-3.1-0.1-5.1-2.2-5.2-5.3c0-1.8,0-3.6,0-5.4l0,0
		C401.7,297.4,401.7,295.6,401.7,293.8z M401.7,325.7L401.7,325.7c0-1.8,0-3.5,0-5.2c0.1-3,2-5.1,5-5.2c3.6-0.1,7.2-0.1,10.8,0
		c3.1,0.1,5.1,2.2,5.2,5.2c0.1,2.9,0.1,5.8,0,8.8c-0.1,3.9-3.1,6.7-7,6.8c-2.8,0.1-5.7,0-8.6,0c-3.4-0.1-5.4-2.1-5.5-5.5
		C401.7,329,401.7,327.4,401.7,325.7z M370.8,295.5c0.1-4,3-6.7,7-6.8c2.9,0,5.7,0,8.6,0c3.3,0,5.4,2.1,5.4,5.4c0,1.8,0,3.5,0,5.2
		c0,1.8,0,3.5,0,5.2c-0.1,3.2-2.1,5.3-5.3,5.4c-3.5,0.1-7,0.1-10.5,0c-3.1-0.1-5.2-2.1-5.3-5.2C370.7,301.6,370.7,298.6,370.8,295.5
		z M391.8,331c-0.1,3.1-2.2,5.1-5.2,5.2c-3,0.1-6,0.1-9,0c-3.8-0.1-6.7-2.9-6.8-6.8c-0.1-2.9-0.1-5.8,0-8.8c0.1-3.1,2.1-5.2,5.2-5.2
		c3.6-0.1,7.2-0.1,10.8,0c3,0.1,4.9,2.2,5,5.2c0.1,1.8,0,3.5,0,5.2C391.8,327.5,391.9,329.2,391.8,331z M425.8,354.1
		c-0.1,3.3-2.1,5.3-5.3,5.3c-15.3,0-30.6,0-45.9,0c-3.5,0-5.6-2.2-5.7-5.6c0-2.1,0-4.1,0-6.2c0-3.5,2.1-5.6,5.6-5.6
		c7.6,0,15.2,0,22.8,0c7.5,0,15,0,22.4,0c4,0,5.9,1.8,6,5.8C425.9,349.8,425.9,351.9,425.8,354.1z"/>
	<path class="st0" d="M479.3,235.9c-0.4-0.5-0.9-1-1.4-1.5c-34.5-35.9-69-71.7-103.5-107.6c-3-3.1-6.5-4.6-10.8-4.6
		c-8.9,0-179.3,0-217.5,0c-5.6,0-10.3,1.8-14.4,5.7c-36.5,35.3-73.1,70.5-109.6,105.7c-2.8,2.8-3.1,6.6-0.6,9.1
		c1.8,1.9,5.8,2.7,9-0.4c36-34.8,72-69.6,108.1-104.3c3.7-3.5,6.7-3.6,10.4,0c17.8,16.9,35.6,33.8,53.4,50.7
		c17.4,16.5,34.7,32.9,52.1,49.4c2.8,2.7,6.2,4.2,10.1,4.2c9,0,195.2,0,210.7,0c0.5,0,1,0,1.5,0
		C479.8,241.8,481.1,238.4,479.3,235.9z M319.8,226.5c-1.8,0-3.5-1.7-3.6-3.4c0-1.8,1.7-3.6,3.6-3.7c1.7,0,3.5,1.7,3.5,3.5
		C323.4,224.7,321.7,226.5,319.8,226.5z"/>
	<path class="st0" d="M319.8,219.4c-1.8,0-3.6,1.9-3.6,3.7c0,1.7,1.8,3.4,3.6,3.4c1.9,0,3.6-1.8,3.5-3.6
		C323.3,221.1,321.5,219.3,319.8,219.4z"/>
</g>
</svg>
