<svg xmlns="http://www.w3.org/2000/svg" width="32" height="45" viewBox="0 0 32 45">
  <g id="location_-_ico" data-name="location - ico" transform="translate(-6.756)">
    <path id="Path_1" data-name="Path 1" d="M22.756,0a15.929,15.929,0,0,0-16,15.82,15.655,15.655,0,0,0,2.388,8.319l12.7,20.237A1.337,1.337,0,0,0,22.978,45h.011a1.336,1.336,0,0,0,1.133-.641L36.5,23.926a15.667,15.667,0,0,0,2.257-8.105A15.929,15.929,0,0,0,22.756,0ZM34.21,22.572,22.958,41.149,11.41,22.75A13.058,13.058,0,0,1,9.4,15.82a13.347,13.347,0,0,1,26.693,0A13.06,13.06,0,0,1,34.21,22.572Z" fill="#0063b6"/>
    <path id="Path_2" data-name="Path 2" d="M22.756,7.91a7.911,7.911,0,1,0,8,7.91A7.964,7.964,0,0,0,22.756,7.91Zm0,13.2A5.291,5.291,0,1,1,28.1,15.82,5.325,5.325,0,0,1,22.756,21.111Z" fill="#0063b6"/>
  </g>
</svg>
