<svg width="516" height="644" viewBox="0 0 516 644" fill="none" xmlns="http://www.w3.org/2000/svg">
<path opacity="0.1" d="M175.399 185.322L175.399 208.155M175.399 147.326L175.399 172.353M175.399 99.7987L175.399 133.569M175.029 112.037C147.539 96.096 160.454 67.3764 160.454 67.3764L165.11 69.4841M175.589 112.037C205.962 96.096 189.851 67.3764 189.851 67.3764L184.939 69.3606M175.589 147.326C133.647 139.19 147.539 89.3362 147.539 89.3362C147.539 89.3362 151.01 91.3775 158.245 94.0548M175.589 185.322C121.879 185.36 135.439 124.74 135.439 124.74C135.439 124.74 145.33 131.091 152.261 133.104M175.228 185.322C228.938 185.36 215.378 124.74 215.378 124.74C215.378 124.74 205.478 131.091 198.556 133.104M175.172 147.326C217.113 139.19 203.221 89.3362 203.221 89.3362C203.221 89.3362 199.751 91.3775 192.515 94.0548M165.793 195.509C165.793 195.509 139.119 200.161 127.701 169.922C119.471 148.114 123.719 118.91 123.823 47.0875M185.915 195.471C185.915 195.471 211.48 200.151 222.897 169.922C231.138 148.114 226.88 118.91 226.766 47.0875M294.178 259.907L294.178 248.932M294.178 278.164L294.178 266.135M294.178 301.017L294.178 284.782M294.358 295.13C307.577 302.792 301.366 316.596 301.366 316.596L299.128 315.581M294.083 295.13C279.48 302.792 287.228 316.596 287.228 316.596L289.589 315.647M294.083 278.164C314.243 282.076 307.568 306.039 307.568 306.039C307.568 306.039 305.899 305.052 302.419 303.77M294.083 259.907C319.905 259.888 313.381 289.026 313.381 289.026C313.381 289.026 308.62 285.978 305.292 285M294.264 259.907C268.452 259.888 274.966 289.026 274.966 289.026C274.966 289.026 279.727 285.978 283.055 285M294.292 278.164C274.132 282.076 280.808 306.039 280.808 306.039C280.808 306.039 282.477 305.052 285.957 303.77M298.796 255.008C298.796 255.008 311.617 252.777 317.107 267.303C321.061 277.785 319.023 291.826 318.966 326.347M289.124 255.027C289.124 255.027 276.835 252.777 271.344 267.303C267.381 277.785 269.429 291.826 269.486 326.347M333.645 489.921L333.645 512.754M333.645 451.916L333.645 476.952M333.645 404.398L333.645 438.159M333.275 416.626C305.785 400.686 318.7 371.966 318.7 371.966L323.356 374.074M333.834 416.626C364.207 400.686 348.096 371.966 348.096 371.966L343.184 373.95M333.834 451.916C291.893 443.779 305.785 393.926 305.785 393.926C305.785 393.926 309.255 395.967 316.491 398.645M333.835 489.921C280.125 489.959 293.685 429.348 293.685 429.348C293.685 429.348 303.576 435.7 310.507 437.713M333.474 489.921C387.184 489.959 373.624 429.348 373.624 429.348C373.624 429.348 363.724 435.7 356.801 437.713M333.417 451.916C375.359 443.779 361.467 393.926 361.467 393.926C361.467 393.926 357.996 395.967 350.761 398.645M324.039 500.108C324.039 500.108 297.364 504.76 285.947 474.521C277.716 452.713 281.965 423.5 282.069 351.687M344.161 500.07C344.161 500.07 369.726 504.76 381.143 474.521C389.384 452.713 385.126 423.5 385.012 351.687M597.479 279.513L597.479 256.679M597.479 317.508L597.479 292.481M597.479 365.035L597.479 331.265M597.849 352.798C625.339 368.738 612.424 397.467 612.424 397.467L607.768 395.36M597.29 352.798C566.917 368.738 583.028 397.467 583.028 397.467L587.94 395.483M597.29 317.508C639.231 325.644 625.339 375.498 625.339 375.498C625.339 375.498 621.869 373.457 614.634 370.779M597.29 279.513C650.999 279.475 637.439 340.094 637.439 340.094C637.439 340.094 627.539 333.743 620.608 331.73M597.65 279.513C543.941 279.475 557.501 340.094 557.501 340.094C557.501 340.094 567.391 333.743 574.323 331.73M597.707 317.508C555.765 325.644 569.657 375.498 569.657 375.498C569.657 375.498 573.128 373.457 580.363 370.779M607.086 269.325C607.086 269.325 633.76 264.673 645.177 294.912C653.408 316.72 649.16 345.924 649.056 417.747M586.963 269.363C586.963 269.363 561.398 264.673 549.981 294.912C541.741 316.72 545.998 345.924 546.112 417.747M281.68 154.361C285.321 147.943 286.023 136.883 275.052 122.262C275.052 122.262 258.315 138.516 267.532 153.849M281.462 178.04C287.863 167.928 284.136 155.263 274.454 142.351C274.454 142.351 259.481 159.469 267.153 176.131M274.445 214.63L274.445 220.573M282.079 187.097C288.754 181.154 299.308 178.03 299.308 178.03C299.071 206.75 274.455 201.462 274.455 201.462L274.455 205.848M272.928 201.471C272.928 201.471 248.311 206.759 248.064 178.04C248.064 178.04 258.618 181.163 265.294 187.106M283.15 158.225C283.15 158.225 287.36 153.07 295.961 151.399C295.961 151.399 300.285 169.618 291.068 181.334M264.934 158.225C264.934 158.225 260.733 153.07 252.123 151.399C252.123 151.399 247.799 169.618 257.006 181.334M292.86 152.197C295.25 146.776 292.86 129.61 292.86 129.61C286.403 131.765 283.15 137.965 283.15 137.965M266.233 122.262L266.186 102.789M265.655 137.974C265.655 137.974 262.402 131.775 255.954 129.62C255.954 129.62 253.555 146.785 255.954 152.206M275.052 110.964L275.052 89.5736M284.079 102.789L284.079 122.262M255.944 129.62L255.944 115.682M292.585 129.62L292.585 115.682M224.472 403.135C220.83 409.553 220.129 420.614 231.1 435.235C231.1 435.235 247.837 418.981 238.62 403.648M224.69 379.457C218.289 389.568 222.016 402.233 231.697 415.145C231.697 415.145 246.67 398.027 238.999 381.365M231.697 342.867L231.697 336.923M224.073 370.4C217.398 376.343 206.843 379.466 206.843 379.466C207.08 350.747 231.697 356.035 231.697 356.035L231.697 351.649M233.224 356.025C233.224 356.025 257.841 350.737 258.087 379.457C258.087 379.457 247.533 376.333 240.858 370.39M223.002 399.271C223.002 399.271 218.791 404.426 210.191 406.097C210.191 406.097 205.867 387.878 215.084 376.162M241.218 399.271C241.218 399.271 245.419 404.426 254.029 406.097C254.029 406.097 258.353 387.878 249.145 376.162M213.292 405.3C210.902 410.711 213.291 427.886 213.291 427.886C219.749 425.731 223.002 419.531 223.002 419.531M239.919 435.235L239.966 454.707M240.497 419.522C240.497 419.522 243.75 425.722 250.198 427.877M250.198 427.877C250.198 427.877 252.597 410.711 250.198 405.29M250.198 427.877L250.198 441.814M231.091 446.533L231.091 467.932M222.073 454.707L222.073 435.235M213.567 427.877L213.567 441.814M510.239 252.208C513.881 245.78 514.583 234.729 503.621 220.108C503.621 220.108 486.884 236.352 496.101 251.695M510.021 275.886C516.422 265.775 512.696 253.109 503.014 240.198C503.014 240.198 488.05 257.315 495.712 273.978M503.014 312.486L503.014 318.419M510.647 284.943C517.323 279 527.877 275.886 527.877 275.886C527.64 304.605 503.023 299.317 503.023 299.317L503.023 303.703M501.487 299.317C501.487 299.317 476.87 304.605 476.624 275.886C476.624 275.886 487.178 279.009 493.854 284.943M511.719 256.072C511.719 256.072 515.929 250.916 524.53 249.245C524.53 249.245 528.854 267.464 519.637 279.18M493.503 256.072C493.503 256.072 489.292 250.916 480.692 249.245C480.692 249.245 476.368 267.464 485.575 279.18M521.42 250.043C523.809 244.622 521.42 227.456 521.42 227.456C514.962 229.612 511.709 235.811 511.709 235.811M494.792 220.108L494.755 200.636M494.214 235.821C494.214 235.821 490.961 229.612 484.513 227.466M484.513 227.466C484.513 227.466 482.114 244.631 484.513 250.052M484.513 227.466L484.513 213.529M503.621 208.81L503.621 187.42M512.639 200.636L512.639 220.108M521.145 227.466L521.145 213.529M696.535 394.325C692.372 401.664 691.575 414.291 704.102 430.991C704.102 430.991 723.228 412.43 712.693 394.913M696.791 367.276C689.48 378.821 693.728 393.29 704.804 408.044C704.804 408.044 721.901 388.486 713.148 369.46M704.794 325.474L704.794 318.685M696.08 356.927C688.456 363.716 676.403 367.276 676.403 367.276C676.678 334.464 704.804 340.512 704.804 340.512L704.804 335.499M706.539 340.512C706.539 340.512 734.664 334.464 734.939 367.276C734.939 367.276 722.877 363.716 715.253 356.927M694.856 389.91C694.856 389.91 690.049 395.796 680.215 397.705C680.215 397.705 675.275 376.894 685.801 363.516M715.661 389.91C715.661 389.91 720.469 395.796 730.293 397.705C730.293 397.705 735.234 376.894 724.708 363.516M683.771 396.793C681.05 402.983 683.771 422.589 683.771 422.589C691.149 420.13 694.856 413.047 694.856 413.047M714.182 430.991L714.239 453.236M714.846 413.047C714.846 413.047 718.563 420.13 725.931 422.589M725.931 422.589C725.931 422.589 728.671 402.983 725.931 396.793M725.931 422.589L725.931 438.51M704.102 443.903L704.102 468.341M693.794 453.236L693.794 430.991M684.084 422.589L684.084 438.51M431.003 475.347C438.892 461.752 439.158 437.504 439.158 437.504C439.158 437.504 438.418 461.752 446.308 475.347M400.829 538.967C400.829 538.967 395.519 544.18 391.261 548.072M476.482 538.967C476.482 538.967 481.792 544.18 486.04 548.072M384.159 500.127C384.159 500.127 383.153 500.867 379.55 505.007M493.948 500.127C493.948 500.127 494.954 500.867 498.566 505.007M745.342 324.543C745.342 324.543 738.467 299.773 726.206 288.494M675.664 233.599C675.664 233.599 668.656 229.991 663.118 227.39M670.192 278.421C670.192 278.421 668.94 277.984 663.99 274.936M701.219 583.01C701.219 583.01 674.279 563.642 666.077 543.733M622.087 457.954C622.087 457.954 620.835 447.833 620.152 439.963M678.802 471.265C678.802 471.265 678.831 469.546 677.342 462.188M314.462 576.63C314.462 576.63 307.587 551.86 295.326 540.581M244.783 485.686C244.783 485.686 237.766 482.079 232.238 479.477M239.321 530.508C239.321 530.508 238.07 530.071 233.12 527.024M142.371 318.353C142.371 318.353 145.69 294.295 139.289 279.911M116.038 213.339C116.038 213.339 111.306 207.576 107.485 203.246M94.5029 250.147C94.5029 250.147 93.5737 249.302 90.4349 244.802M338.282 328.958C338.282 328.958 355.161 311.517 370.418 307.701M437.119 285.019C437.119 285.019 444.563 285.199 450.328 285.541M421.435 324.666C421.435 324.666 422.668 324.875 428.149 324.581M461.015 192.907C461.015 192.907 466.857 190.439 468.554 188.056C472.508 182.502 468.336 178.438 468.222 171.821C468.222 171.821 468.981 175.41 463.585 181.192C458.199 186.983 461.015 192.898 461.015 192.898L461.015 192.907ZM461.015 192.907C468.772 202.772 471.114 210.842 471.114 210.842M416.219 143.861C416.219 143.861 411.639 148.257 408.785 148.874C402.128 150.307 399.397 146.348 393.376 143.633C393.376 143.633 397.017 144.26 404.461 141.601C411.905 138.933 416.219 143.87 416.219 143.87L416.219 143.861ZM416.219 143.861C411.051 139.959 395.832 129.724 393.376 128.357M33.9943 422.237C33.9943 422.237 27.6504 422.076 25.128 423.538C19.2393 426.965 21.3634 432.386 18.7368 438.463C18.7368 438.463 19.5238 434.883 26.8254 431.845C34.1176 428.798 33.9943 422.247 33.9943 422.247L33.9943 422.237ZM33.9943 422.237C30.9883 410.047 32.1831 401.73 32.1831 401.73M54.5811 485.42C54.5811 485.42 60.5646 483.303 63.4189 483.92C70.0756 485.363 70.9291 490.101 75.2911 495.066C75.2911 495.066 72.2377 492.987 64.3576 492.342C56.4776 491.696 54.5811 485.42 54.5811 485.42ZM54.5811 485.42C57.6819 491.107 67.3162 506.716 68.9946 508.975M355.825 86.8488C363.202 86.8203 377.36 83.0227 371.48 64.6231C368.218 54.4264 358.698 46.5748 358.698 46.5748C358.698 46.5748 346.968 52.8599 342.805 65.2877C341.051 70.5284 340.558 86.9152 355.834 86.8583L355.825 86.8488ZM355.825 86.8488L355.825 113.85M366.891 55.6797C366.891 55.6797 381.855 40.8879 357.399 21.5105C357.399 21.5105 332.83 36.796 348.134 55.6797M359.144 86.8488C359.144 86.8488 370.286 98.2322 383.191 87.8647C394.447 78.8168 383.391 68.2878 390.815 61.2432C390.815 61.2432 378.412 56.3822 370.836 62.8287M354.516 86.8488C354.516 86.8488 343.374 98.2322 330.468 87.8647C319.212 78.8168 330.269 68.2878 322.844 61.2432C322.844 61.2432 335.248 56.3822 342.834 62.8287M385.23 59.8286C385.23 59.8286 390.806 54.8063 387.535 45.2362C384.86 37.4321 384.348 31.3463 386.169 26.1056C386.169 26.1056 373.216 27.919 367.754 32.4856M327.88 59.8286C327.88 59.8286 322.304 54.8062 325.575 45.2362C328.249 37.432 328.761 31.3463 326.941 26.1056C326.941 26.1056 339.894 27.919 345.356 32.4856M376.108 28.4316C376.108 28.4316 374.97 19.3933 369.034 13.6873C363.098 7.97185 359.608 4.25016 357.285 2.00006C357.285 2.00006 353.511 6.21544 343.127 14.3709C336.461 19.6021 337.011 28.4411 337.011 28.4411M204.776 298.007C212.154 297.979 226.311 294.181 220.432 275.781C217.17 265.585 207.65 257.733 207.65 257.733C207.65 257.733 195.92 264.018 191.757 276.446C190.002 281.687 189.509 298.073 204.786 298.016L204.776 298.007ZM204.776 298.007L204.776 324.999M215.842 266.828C215.842 266.828 230.806 252.037 206.35 232.659C206.35 232.659 181.781 247.945 197.086 266.828M208.095 298.007C208.095 298.007 219.237 309.39 232.143 299.023C243.399 289.975 232.342 279.446 239.767 272.401C239.767 272.401 227.364 267.54 219.787 273.987M203.468 298.007C203.468 298.007 192.326 309.39 179.42 299.023C168.164 289.975 179.221 279.446 171.796 272.401C171.796 272.401 184.199 267.54 191.785 273.987M234.182 270.977C234.182 270.977 239.757 265.955 236.486 256.385C233.812 248.581 233.3 242.495 235.12 237.254C235.12 237.254 222.167 239.068 216.705 243.634M176.831 270.977C176.831 270.977 171.255 265.955 174.527 256.385C177.201 248.581 177.713 242.495 175.892 237.254C175.892 237.254 188.845 239.068 194.307 243.634M225.059 239.58C225.059 239.58 223.922 230.542 217.985 224.836C212.049 219.13 208.56 215.399 206.236 213.149C206.236 213.149 202.462 217.364 192.079 225.52C185.413 230.751 185.963 239.59 185.963 239.59M169.842 545.736C178.102 545.698 193.947 541.455 187.366 520.862C183.715 509.45 173.047 500.649 173.047 500.649C173.047 500.649 159.914 507.684 155.258 521.593C153.286 527.46 152.745 545.803 169.842 545.736ZM169.842 545.736L169.842 575.966M182.227 510.846C182.227 510.846 198.982 494.288 171.606 472.594C171.606 472.594 144.107 489.702 161.232 510.846M173.55 545.736C173.55 545.736 186.029 558.487 200.471 546.876C213.064 536.746 200.689 524.963 209.005 517.074C209.005 517.074 195.123 511.634 186.636 518.849M168.372 545.736C168.372 545.736 155.903 558.487 141.461 546.876C128.868 536.746 141.243 524.963 132.926 517.074C132.926 517.074 146.809 511.634 155.296 518.849M202.756 515.488C202.756 515.488 209.005 509.868 205.336 499.158C202.339 490.424 201.77 483.607 203.809 477.74C203.809 477.74 189.31 479.771 183.194 484.879M138.55 515.488C138.55 515.488 132.301 509.868 135.98 499.158C138.976 490.424 139.545 483.607 137.506 477.74C137.506 477.74 152.015 479.771 158.122 484.879M192.544 480.332C192.544 480.332 191.273 470.22 184.616 463.821C177.969 457.432 174.062 453.264 171.464 450.729C171.464 450.729 167.244 455.448 155.618 464.571C148.155 470.429 148.772 480.322 148.772 480.322M557.605 522.685C564.982 522.656 579.14 518.859 573.261 500.459C569.999 490.263 560.478 482.411 560.478 482.411C560.478 482.411 548.748 488.696 544.585 501.114C542.831 506.355 542.338 522.742 557.615 522.685L557.605 522.685ZM557.605 522.685L557.605 549.677M568.671 491.506C568.671 491.506 583.635 476.714 559.179 457.337C559.179 457.337 534.61 472.622 549.915 491.506M560.924 522.685C560.924 522.685 572.066 534.068 584.972 523.701C596.228 514.653 585.171 504.124 592.596 497.079C592.596 497.079 580.193 492.218 572.616 498.665M556.297 522.685C556.297 522.685 545.155 534.068 532.249 523.701C521.002 514.653 532.05 504.124 524.625 497.079C524.625 497.079 537.028 492.218 544.605 498.665M587.011 495.655C587.011 495.655 592.586 490.633 589.315 481.063C586.641 473.259 586.129 467.173 587.949 461.932C587.949 461.932 574.996 463.745 569.534 468.312M529.65 495.655C529.65 495.655 524.074 490.633 527.346 481.063C530.02 473.259 530.532 467.173 528.712 461.932C528.712 461.932 541.665 463.745 547.127 468.312M577.879 464.258C577.879 464.258 576.741 455.22 570.805 449.514C564.869 443.798 561.379 440.077 559.056 437.827C559.056 437.827 555.282 442.042 544.898 450.198C538.232 455.429 538.782 464.268 538.782 464.268M368.664 242.723C368.664 242.723 365.175 251.268 350.922 249.663M361.846 220.393C361.846 220.393 376.25 227.267 380.479 212.18C381.314 209.18 383.049 201.519 384.879 198.946C384.879 198.946 382.205 198.756 376.241 201.471M348.409 220.393C348.409 220.393 334.005 227.266 329.776 212.18C328.942 209.18 327.206 201.518 325.376 198.946C325.376 198.946 340.984 200.17 344.408 205.762M376.241 201.48C376.241 201.48 383.732 199.041 381.276 187.619C380.091 182.122 382.035 176.217 383.229 175.419C383.229 175.419 368.664 174.242 361.846 193.021M343.336 186.129C343.336 186.129 338.197 177.062 324.39 178.771C324.39 178.771 326.533 179.198 327.339 186.129C328.941 199.819 333.768 200.303 333.768 200.303M366.701 183.973C366.701 183.973 372.22 172.267 354.307 162.602C354.307 162.602 344.673 169.343 341.639 182.103M376.279 176.682C376.279 176.682 379.854 167.9 377.341 155.956C377.341 155.956 371.272 157.675 365.137 161.33M333.038 178.78C333.038 178.78 326.998 170.653 329.51 158.7C329.51 158.7 344.417 158.7 347.49 169.637M366.132 159.403C366.132 159.403 363.221 147.782 352.288 144.003C352.288 144.003 341.904 151.19 340.378 161.33M355.682 221.551C355.682 221.551 355.17 242.723 381.674 247.195C401.948 250.622 426.783 228.036 432.245 263.382M344.408 247.65C347.385 245.087 353.416 229.631 320.616 229.175C320.616 229.175 330.411 259.746 344.408 247.65ZM344.408 247.65L335.266 239.827M391.925 238.527C391.925 238.527 419.718 242.6 420.856 210.452C420.856 210.452 377.113 203.845 391.925 238.527ZM391.925 238.527L402.991 225.757M587.333 225.577C587.333 225.577 583.398 230.096 574.977 226.118M587.817 210.424C587.817 210.424 595.232 217.668 600.988 209.285C602.135 207.623 604.8 203.275 606.46 202.079C606.46 202.079 604.857 201.405 600.618 201.813M579.558 207.604C579.558 207.604 569.269 208.801 569.828 198.651C569.942 196.629 570.483 191.559 569.895 189.594C569.895 189.594 579.226 193.62 580.164 197.778M600.618 201.822C600.618 201.822 605.729 201.898 606.611 194.36C607.038 190.733 609.466 187.505 610.366 187.277C610.366 187.277 601.661 183.499 593.544 193.61M583.616 185.483C583.616 185.483 582.355 178.828 573.508 176.986C573.508 176.986 574.731 177.698 573.783 182.122C571.905 190.876 574.769 192.186 574.769 192.186M598.418 189.062C598.418 189.062 604.26 183.024 595.27 173.331C595.27 173.331 587.94 175.448 583.407 182.654M605.834 186.594C605.834 186.594 609.864 181.951 610.831 174.081C610.831 174.081 606.744 173.862 602.202 174.821M578.818 178.809C578.818 178.809 576.807 172.552 580.847 165.726C580.847 165.726 590.007 168.849 589.609 176.217M603.216 173.843C603.216 173.843 603.861 166.096 597.935 161.472C597.935 161.472 590.045 163.713 586.992 169.618M583.787 209.845C583.787 209.845 579.045 222.747 594.388 231.055C606.128 237.416 626.117 228.748 622.077 251.619M571.393 223.516C573.764 222.567 580.705 214.336 560.64 207.168C560.64 207.168 560.26 228.007 571.393 223.516ZM571.393 223.516L567.42 216.795M602.505 227.884C602.505 227.884 618.74 236.219 626.165 216.7C626.165 216.7 600.666 203.455 602.505 227.884ZM602.505 227.884L611.978 222.349M474.006 626.009C474.006 626.009 473.769 633.937 461.831 636.946M461.793 610.126C461.793 610.126 475.448 611.293 474.3 597.888C474.073 595.229 473.143 588.536 473.845 585.916C473.845 585.916 471.636 586.571 467.653 590.558M450.992 614.179C450.992 614.179 441.481 624.063 433.535 613.211C431.951 611.056 428.253 605.416 426.006 603.897C426.006 603.897 438.921 600.166 443.368 603.622M467.663 590.558C467.663 590.558 472.954 586.333 467.53 577.884C464.922 573.82 464.695 568.484 465.415 567.488C465.415 567.488 453.353 570.943 453.534 588.099M436.569 588.166C436.569 588.166 429.694 582.431 419.112 587.976C419.112 587.976 420.961 587.672 423.701 592.998C429.116 603.527 433.146 602.454 433.146 602.454M454.709 579.365C454.709 579.365 455.61 568.285 438.295 565.93C438.295 565.93 432.577 574.266 433.99 585.441M460.219 570.611C460.219 570.611 460.446 562.475 454.823 553.626C454.823 553.626 450.471 556.835 446.63 561.639M426.072 585.365C426.072 585.365 418.761 580.656 417.177 570.288C417.177 570.288 429.163 565.779 434.938 573.649M446.839 559.788C446.839 559.788 440.997 551.319 431.06 551.594C431.06 551.594 424.877 560.519 426.707 569.13M457.184 612.917C457.184 612.917 463.158 630.092 485.822 625.677C503.156 622.297 516.308 596.634 531.367 623.408M455.999 637.307C457.62 634.345 457.81 620.094 431.297 629.645C431.297 629.645 448.394 651.263 455.999 637.307ZM455.999 637.307L446.289 633.785M491.445 615.604C491.445 615.604 515.028 610.467 506.247 584.283C506.247 584.283 469.085 592.191 491.445 615.604ZM491.445 615.604L496.49 601.989M85.3426 290.089C85.3426 290.089 93.8485 286.519 102.781 297.741M74.3903 310.691C74.3903 310.691 69.0516 295.633 55.4156 303.305C52.7035 304.833 46.0657 309.03 42.9554 309.542C42.9554 309.542 44.7097 311.574 50.8544 313.872M83.9013 320.204C83.9013 320.204 98.9407 325.54 91.2788 339.202C89.7521 341.917 85.5607 348.563 85.0392 351.668C85.0392 351.668 74.8739 339.753 76.4006 333.373M50.8544 313.881C50.8544 313.881 43.8372 310.302 37.5029 320.119C34.4589 324.837 28.9116 327.648 27.5082 327.363C27.5082 327.363 36.9718 338.509 55.0552 330.05M63.2767 348.031C63.2767 348.031 60.5078 358.086 71.4792 366.649C71.4792 366.649 70.2654 364.826 74.5895 359.358C83.1333 348.544 80.0515 344.775 80.0515 344.775M45.2408 333.012C45.2408 333.012 33.0651 337.389 38.9159 356.899C38.9159 356.899 50.4942 358.95 61.6362 352.076M33.3212 331.379C33.3212 331.379 24.5972 335.062 17.9309 345.278C17.9309 345.278 23.4308 348.354 30.3531 350.12M65.3724 360.516C65.3724 360.516 63.9026 370.532 53.6898 377.216C53.6898 377.216 43.1547 366.668 48.702 356.756M28.286 350.785C28.286 350.785 22.1412 361.057 27.1954 371.472C27.1954 371.472 39.6177 373.741 47.8581 367.656M79.5679 314.242C79.5679 314.242 94.8823 299.631 79.3023 277.709C67.3827 260.933 33.8806 259.319 54.9795 230.456M105.967 303.77C102.051 303.476 86.8694 310.131 109.741 333.676C109.741 333.676 124.402 305.128 105.967 303.77ZM105.967 303.77L106.906 315.77M65.9318 276.579C65.9318 276.579 49.157 254.021 25.6496 275.943C25.6496 275.943 51.907 311.584 65.9318 276.579ZM65.9318 276.579L49.0906 277.775M485.594 366.108C475.476 354.25 466.325 362.282 466.325 362.282M485.594 366.108C485.594 366.108 509.689 355.105 506.152 402.964C506.152 402.964 463.234 383.093 485.594 366.108ZM498.292 398.701C498.292 398.701 500.093 417.177 520.67 422.275M520.67 422.275C520.67 422.275 518.243 396.242 506.703 393.119M520.67 422.275L525.07 410.208C525.07 410.208 526.398 400.334 518.726 391.742M479.146 376.504C479.146 376.504 466.278 384.242 479.07 401.103C479.07 401.103 483.849 397.325 486.154 389.654M494.641 365.501C494.641 365.501 506.911 361.276 513.672 373.077C513.672 373.077 511.908 377.169 504.484 377.169M486.154 390.565C486.154 390.565 479.146 407.37 492.441 414.794C492.441 414.794 499.742 410.199 498.291 398.692M510.249 376.067C510.249 376.067 518.063 379.856 521.211 387.1C521.211 387.1 520.661 394.135 510.638 394.79M494.641 412.781C494.641 412.781 498.443 420.395 507.148 421.877L520.68 422.275M446.336 366.108C456.454 354.25 465.605 362.282 465.605 362.282M446.336 366.108C446.336 366.108 422.25 355.105 425.778 402.964C425.778 402.964 468.687 383.093 446.336 366.108ZM433.639 398.701C433.639 398.701 431.837 417.177 411.27 422.275M411.27 422.275C411.27 422.275 413.697 396.242 425.237 393.119M411.27 422.275L424.792 421.876C433.497 420.395 437.299 412.781 437.299 412.781M411.27 422.275L406.87 410.208C406.87 410.208 405.551 400.334 413.213 391.742M452.784 376.504C452.784 376.504 465.652 384.242 452.86 401.103C452.86 401.103 448.081 397.325 445.777 389.654M437.299 365.501C437.299 365.501 425.029 361.276 418.268 373.077C418.268 373.077 420.031 377.169 427.447 377.169M445.777 390.565C445.777 390.565 452.784 407.37 439.499 414.794C439.499 414.794 432.198 410.199 433.639 398.692M421.691 376.067C421.691 376.067 413.868 379.856 410.729 387.1C410.729 387.1 411.279 394.135 421.302 394.79M466.363 362.282L466.363 338.48M473.125 353.177C473.125 353.177 479.089 328.758 502.407 337.18C502.407 337.18 496.471 357.943 473.125 353.177ZM473.125 353.177L485.594 346.076M458.958 353.177C458.958 353.177 452.993 328.758 429.685 337.18C429.685 337.18 435.621 357.943 458.958 353.177ZM458.958 353.177L447.626 346.076M118.409 424.506C133.401 428.722 136.549 416.949 136.549 416.949M118.409 424.506C118.409 424.506 104.497 447.074 80.8479 405.328C80.8479 405.328 127.55 397.942 118.409 424.506ZM89.7522 404.483C89.7522 404.483 77.9938 390.138 58.0614 397.353C58.0614 397.353 74.5421 417.633 85.8644 413.806M117.991 412.268C117.991 412.268 124.383 398.673 104.384 391.79C104.384 391.79 102.506 397.591 104.858 405.252M111.23 430.041C111.23 430.041 103.379 440.39 91.2029 434.342C91.2029 434.342 90.3969 429.956 96.5606 425.826M104.355 404.483C104.355 404.483 100.837 386.615 85.6652 387.85C85.6652 387.85 82.1566 395.73 89.7427 404.493M92.3882 429.956C92.3882 429.956 83.7875 431.152 77.1497 426.889C77.1497 426.889 73.7075 420.737 81.6634 414.613M84.9635 390.745C84.9635 390.745 77.5766 386.539 69.5163 390.157L58.0519 397.363M58.0614 397.363L61.1147 409.838C61.1147 409.838 65.4957 418.781 76.6378 421.649M151.038 402.641C149.208 418.126 137.146 416.55 137.146 416.55M151.038 402.641C151.038 402.641 177.163 398.369 147.643 360.564C147.643 360.564 123.017 400.97 151.038 402.641ZM143.481 368.482C143.481 368.482 134.719 352.133 148.971 336.43M148.971 336.43C148.971 336.43 161.412 359.415 153.561 368.434M148.971 336.43L137.952 344.291C131.551 350.367 132.613 358.817 132.613 358.817M148.971 336.43L159.336 344.015C159.336 344.015 165.916 351.487 164.323 362.89M139.896 397.591C139.896 397.591 124.904 398.331 126.165 377.188C126.165 377.188 132.234 377.662 138.417 382.761M158.88 398.103C158.88 398.103 171.426 394.78 170.478 381.213C170.478 381.213 166.741 378.802 160.578 382.922M137.905 382.001C137.905 382.001 122.742 371.937 129.665 358.37C129.665 358.37 138.284 358.124 143.471 368.482M165.983 380.634C165.983 380.634 170.373 373.124 168.97 365.358C168.97 365.358 164.598 359.823 155.903 364.855M136.52 416.968L149.739 436.744M135.961 428.304C135.961 428.304 144.571 451.916 120.523 457.907C120.523 457.907 113.914 437.352 135.961 428.304ZM135.961 428.304L129.541 441.15M147.738 420.405C147.738 420.405 166.258 437.38 180.956 417.395C180.956 417.395 164.494 403.448 147.738 420.405ZM147.738 420.405L161.099 419.997M85.3048 515.536C85.3048 515.536 110.339 513.732 109.486 538.53C109.486 538.53 87.9315 539.243 85.3048 515.536ZM85.3048 515.536L95.8685 525.248M471.351 440.437C471.351 440.437 496.385 438.634 495.532 463.432C495.532 463.432 473.978 464.144 471.351 440.437ZM471.351 440.437L481.915 450.141M477.515 132.373C477.515 132.373 502.549 130.569 501.696 155.368C501.696 155.368 480.142 156.08 477.515 132.373ZM477.515 132.373L488.079 142.086M722.84 221.181C722.84 221.181 747.874 219.377 747.02 244.176C747.02 244.176 725.466 244.888 722.84 221.181ZM722.84 221.181L733.403 230.884M42.6803 557.471C40.1295 549.43 31.415 540.258 10.667 538.122C10.667 538.122 11.2834 564.782 31.2727 568.94M62.3378 576.023C58.8482 562.807 45.3449 556.104 27.015 554.215C27.015 554.215 29.7365 580.058 49.6311 586.552M70.4075 582.536C70.6066 572.32 76.1919 561.05 76.1919 561.05C100.06 583.542 76.5237 600.1 76.5237 600.1L80.1935 603.499M75.3386 601.372C75.3386 601.372 60.6595 626.142 36.4219 604.059C36.4219 604.059 47.2226 597.622 57.3785 596.625M47.0615 559.237C47.0615 559.237 46.0089 551.708 51.2907 543.183C51.2907 543.183 69.8956 553.692 72.5507 570.516M32.9229 574.523C32.9229 574.523 25.3463 574.057 17.2671 579.972C17.2671 579.972 29.1583 597.736 46.1227 599.093M49.5457 546.411C46.8622 540.201 30.6374 528.884 30.6374 528.884C27.4228 535.976 30.1064 543.515 30.1064 543.515M16.5274 558.202C16.5274 558.202 8.80854 556.113 2.00002 559.864C2.00002 559.864 14.5076 575.187 20.9083 577.39M30.4288 529.122L18.7557 518.308M687.782 72.3324L687.782 49.4991M687.782 110.328L687.782 85.3013M687.782 157.855L687.782 124.085M688.152 145.617C715.642 161.558 702.727 190.278 702.727 190.278L698.071 188.17M687.593 145.617C657.22 161.558 673.331 190.278 673.331 190.278L678.243 188.293M687.593 110.328C729.534 118.464 715.642 168.318 715.642 168.318C715.642 168.318 712.172 166.276 704.936 163.599M687.593 72.3324C741.302 72.2944 727.742 132.905 727.742 132.905C727.742 132.905 717.842 126.553 710.911 124.54M687.953 72.3324C634.244 72.2944 647.804 132.905 647.804 132.905C647.804 132.905 657.694 126.553 664.626 124.54M688.01 110.328C646.068 118.464 659.96 168.318 659.96 168.318C659.96 168.318 663.431 166.276 670.666 163.599M697.388 62.1452C697.388 62.1452 724.063 57.4931 735.48 87.7318C743.711 109.54 739.463 138.753 739.358 210.566M677.266 62.1832C677.266 62.1832 651.701 57.4931 640.284 87.7318C632.044 109.54 636.301 138.753 636.415 210.566M474.006 78.1997C474.006 78.1997 473.769 86.1273 461.831 89.1369M461.793 62.3161C461.793 62.3161 475.448 63.4839 474.3 50.0782C474.073 47.4199 473.143 40.7265 473.845 38.1062C473.845 38.1062 471.636 38.7613 467.653 42.7488M450.992 66.3701C450.992 66.3701 441.481 76.2534 433.535 65.4017C431.951 63.2465 428.253 57.607 426.006 56.088C426.006 56.088 438.921 52.3568 443.368 55.8126M436.569 40.3562C436.569 40.3562 429.694 34.6218 419.112 40.1663C419.112 40.1663 420.961 39.8625 423.701 45.1887C429.116 55.7177 433.146 54.6448 433.146 54.6448M457.184 65.1073C457.184 65.1073 463.158 82.2821 485.822 77.8673C503.156 74.4874 516.308 48.8249 531.367 75.5983M455.999 89.4977C457.621 86.5356 457.81 72.2849 431.297 81.836C431.297 81.836 448.394 103.454 455.999 89.4977ZM455.999 89.4977L446.289 85.9753M491.445 67.7942C491.445 67.7942 515.028 62.6579 506.247 36.4732C506.247 36.4732 469.085 44.3818 491.445 67.7942ZM491.445 67.7942L496.49 54.1796M562.214 122.632C577.604 124.987 579.292 112.92 579.292 112.92M562.214 122.632C562.214 122.632 551.167 146.728 522.586 108.201C522.586 108.201 568.036 95.1468 562.214 122.632ZM531.329 106.274C531.329 106.274 517.902 93.4757 499.003 103.074M499.003 103.074C499.003 103.074 517.835 121.189 528.608 115.996M499.003 103.074L509.5 94.52C517.048 89.9439 524.9 93.2193 524.9 93.2193M499.003 103.074L503.554 115.084C503.554 115.084 508.997 123.42 520.405 124.911M560.308 110.537C560.308 110.537 564.992 96.2574 544.301 91.8711C544.301 91.8711 543.154 97.8524 546.416 105.172M555.765 129.003C555.765 129.003 549.241 140.234 536.421 135.724C536.421 135.724 535.084 131.471 540.698 126.62M545.828 104.489C545.828 104.489 540.157 87.1906 525.251 90.2667C525.251 90.2667 522.728 98.5266 531.329 106.283M537.056 131.234C537.056 131.234 528.664 133.484 521.552 130.056C521.552 130.056 517.38 124.369 524.53 117.315M591.932 96.9411C592.008 112.54 579.842 112.445 579.842 112.445M591.932 96.9411C591.932 96.9411 617.346 89.5072 583.426 55.5942C583.426 55.5942 563.921 98.7165 591.932 96.9411ZM580.25 63.9586C580.25 63.9586 569.553 48.806 581.786 31.4793C581.786 31.4793 596.949 52.7651 590.254 62.6864M580.25 93.2859C580.25 93.2859 565.466 95.8493 564.139 74.7154C564.139 74.7154 570.227 74.4401 576.978 78.7504M599.158 91.482C599.158 91.482 611.201 86.6495 608.612 73.2914C608.612 73.2914 604.601 71.3546 598.997 76.206M576.381 78.0573C576.381 78.0573 560.109 69.9304 565.315 55.6133C565.315 55.6133 573.839 54.3126 580.259 63.9586M604.08 73.2723C604.08 73.2723 607.522 65.2783 605.17 57.74C605.17 57.74 600.163 52.784 592.15 58.8413M568.292 55.6988C568.292 55.6988 566.206 47.4484 571.82 40.6316L581.795 31.4793L593.004 37.7359C593.004 37.7359 600.448 44.3438 600.258 55.8602M579.273 112.939L594.805 130.949M580.098 124.256C580.098 124.256 591.524 146.633 568.387 155.52C568.387 155.52 559.321 135.924 580.098 124.256ZM580.098 124.256L575.29 137.794M590.823 114.98C590.823 114.98 611.277 129.553 623.424 107.926C623.424 107.926 605.379 96.0961 590.823 114.98ZM590.823 114.98L604.032 112.939M767 422.237C767 422.237 760.656 422.076 758.134 423.538C752.245 426.965 754.369 432.387 751.743 438.463C751.743 438.463 752.53 434.884 759.831 431.845C767.123 428.798 767 422.247 767 422.247L767 422.237ZM175.399 86.4785C175.399 86.4785 152.262 74.8103 175.399 45.4545C175.399 45.4545 196.877 69.8544 175.399 86.4785ZM294.178 307.416C294.178 307.416 305.301 313.027 294.178 327.135C294.178 327.135 283.852 315.41 294.178 307.416ZM333.645 391.078C333.645 391.078 310.507 379.409 333.645 350.054C333.645 350.054 355.123 374.453 333.645 391.078ZM597.479 378.356C597.479 378.356 620.617 390.024 597.479 419.38C597.479 419.38 576.001 394.98 597.479 378.356ZM274.445 201.471C274.445 201.471 292.471 184.182 274.151 166.903C274.151 166.903 256.134 180.84 274.445 201.471ZM231.697 356.025C231.697 356.025 213.671 373.314 231.991 390.594C231.991 390.594 250.008 376.656 231.697 356.025ZM503.014 299.317C503.014 299.317 521.04 282.029 502.72 264.749C502.72 264.749 484.703 278.687 503.014 299.317ZM704.794 340.512C704.794 340.512 684.198 360.26 705.126 379.998C705.126 379.998 725.713 364.077 704.794 340.512ZM417.822 495.883C417.822 495.883 429.618 510.191 420.25 520.302C420.25 520.302 408.709 513.314 417.822 495.883ZM429.732 482.762C429.732 482.762 441.528 497.07 432.16 507.181C432.16 507.181 420.629 500.203 429.732 482.762ZM407.325 510.115C407.325 510.115 416.817 526.976 404.802 534.524C404.802 534.524 395.215 523.881 407.325 510.115ZM413.138 493.339C413.138 493.339 396.477 485.212 388.853 496.709C388.853 496.709 398.335 506.298 413.138 493.339ZM425.427 478.917C425.427 478.917 408.766 470.79 401.142 482.287C401.142 482.287 410.634 491.876 425.427 478.917ZM402.612 507.143C402.612 507.143 383.988 501.969 379.55 515.46C379.55 515.46 392.171 522.22 402.612 507.143ZM394.542 522.457C394.542 522.457 399.407 532.834 380.868 542.831C380.868 542.831 380.631 522.637 394.542 522.457ZM459.498 495.883C459.498 495.883 447.702 510.191 457.07 520.302C457.07 520.302 468.611 513.314 459.498 495.883ZM447.578 482.762C447.578 482.762 435.782 497.07 445.151 507.181C445.151 507.181 456.682 500.203 447.578 482.762ZM469.995 510.115C469.995 510.115 460.503 526.976 472.518 534.524C472.518 534.524 482.105 523.881 469.995 510.115ZM464.182 493.339C464.182 493.339 480.843 485.212 488.467 496.709C488.467 496.709 478.985 506.298 464.182 493.339ZM451.883 478.917C451.883 478.917 468.544 470.79 476.168 482.287C476.168 482.287 466.686 491.877 451.883 478.917ZM474.699 507.143C474.699 507.143 493.323 501.969 497.76 515.46C497.76 515.46 485.13 522.22 474.699 507.143ZM482.778 522.457C482.778 522.457 477.913 532.834 496.452 542.831C496.452 542.831 496.689 522.637 482.778 522.457ZM706.406 271.86C706.406 271.86 713.85 253.66 701.181 246.378C701.181 246.378 691.699 257.078 706.406 271.86ZM722.584 281.392C722.584 281.392 730.027 263.192 717.359 255.91C717.359 255.91 707.876 266.61 722.584 281.392ZM691.3 260.762C691.3 260.762 695.605 240.71 681.069 236.846C681.069 236.846 674.715 250.641 691.3 260.762ZM702.462 275.905C702.462 275.905 688.152 289.377 676.821 280.149C676.821 280.149 683.411 267.455 702.462 275.905ZM719.435 286.633C719.435 286.633 705.126 300.105 693.794 290.877C693.794 290.877 700.385 278.183 719.435 286.633ZM687.47 265.253C687.47 265.253 670.249 276.361 661.506 264.104C661.506 264.104 672.165 253.28 687.47 265.253ZM674.488 252.293C674.488 252.293 676.147 240.254 654.243 235.982C654.243 235.982 660.349 256.499 674.488 252.293ZM654.745 512.298C654.745 512.298 629.389 513.238 626.202 494.62C626.202 494.62 643.385 487.87 654.745 512.298ZM659.079 536.185C659.079 536.185 633.722 537.116 630.536 518.507C630.536 518.507 647.718 511.757 659.079 536.185ZM648.022 489.028C648.022 489.028 621.821 485.335 623.604 465.967C623.604 465.967 643.138 464.401 648.022 489.028ZM661.392 509.308C661.392 509.308 684.084 497.934 677.94 480.075C677.94 480.075 659.638 482.42 661.392 509.308ZM666.835 534.695C666.835 534.695 689.527 523.321 683.383 505.463C683.383 505.463 665.072 507.808 666.835 534.695ZM655.162 486.37C655.162 486.37 676.28 470.401 665.328 454.346C665.328 454.346 647.481 462.464 655.162 486.37ZM645.253 464.837C645.253 464.837 629.938 461.505 634.509 433.004C634.509 433.004 656.632 449.552 645.253 464.837ZM275.526 523.948C275.526 523.948 282.97 505.747 270.311 498.456C270.311 498.456 260.828 509.165 275.526 523.948ZM291.703 533.48C291.703 533.48 299.147 515.279 286.478 507.997C286.478 507.997 276.996 518.697 291.703 533.48ZM260.42 512.849C260.42 512.849 264.725 492.797 250.188 488.933C250.188 488.933 243.835 502.728 260.42 512.849ZM271.581 527.992C271.581 527.992 257.272 541.464 245.94 532.236C245.94 532.236 252.531 519.542 271.581 527.992ZM288.555 538.72C288.555 538.72 274.246 552.192 262.914 542.964C262.914 542.964 269.504 530.271 288.555 538.72ZM256.589 517.34C256.589 517.34 239.369 528.448 230.626 516.191C230.626 516.191 241.284 505.368 256.589 517.34ZM243.607 504.38C243.607 504.38 245.267 492.342 223.362 488.069C223.362 488.069 229.469 508.586 243.607 504.38ZM128.356 258.056C128.356 258.056 141.632 245.068 133.382 233.998C133.382 233.998 121.149 239.723 128.356 258.056ZM138.815 272.392C138.815 272.392 152.091 259.404 143.832 248.334C143.832 248.334 131.599 254.049 138.815 272.392ZM119.423 242.761C119.423 242.761 130.67 226.991 119.518 218.181C119.518 218.181 108.841 227.76 119.423 242.761ZM123.415 260.088C123.415 260.088 105.958 266.392 99.595 254.135C99.595 254.135 110.064 245.6 123.415 260.088ZM134.121 275.762C134.121 275.762 116.664 282.066 110.301 269.809C110.301 269.809 120.77 261.274 134.121 275.762ZM114.416 245.21C114.416 245.21 95.3185 248.372 92.3409 234.463C92.3409 234.463 105.636 229.089 114.416 245.21ZM108.006 229.099C108.006 229.099 113.961 219.291 96.5702 207.357C96.5702 207.357 94.1805 227.437 108.006 229.099ZM394.353 302.859C394.353 302.859 396.391 284.383 410.179 284.07C410.179 284.07 413.213 297.238 394.353 302.859ZM376.62 303.447C376.62 303.447 378.659 284.981 392.447 284.658C392.447 284.658 395.491 297.827 376.62 303.447ZM411.886 300.476C411.886 300.476 417.357 281.886 431.164 285.257C431.164 285.257 430.206 299.583 411.886 300.476ZM395.794 307.995C395.794 307.995 401.588 325.644 415.157 323.109C415.157 323.109 415.423 309.599 395.794 307.995ZM376.876 309.22C376.876 309.22 382.67 326.869 396.23 324.334C396.23 324.334 396.496 310.824 376.876 309.22ZM413.043 305.935C413.043 305.935 422.326 322.939 435.099 316.72C435.099 316.72 431.136 302.925 413.043 305.935ZM429.666 301.055C429.666 301.055 433.715 290.317 453.818 296.678C453.818 296.678 439.499 310.938 429.666 301.055ZM454.937 188.806C454.937 188.806 450.357 193.202 447.503 193.819C440.846 195.252 438.115 191.293 432.093 188.578C432.093 188.578 435.735 189.205 443.179 186.537C450.622 183.869 454.937 188.806 454.937 188.806ZM448.346 176.388C448.346 176.388 443.766 180.783 440.912 181.401C434.255 182.844 431.524 178.875 425.503 176.16C425.503 176.16 429.144 176.786 436.588 174.119C444.032 171.451 448.346 176.388 448.346 176.388ZM439.054 165.574C439.054 165.574 434.474 169.97 431.629 170.587C424.972 172.02 422.241 168.061 416.22 165.346C416.22 165.346 419.851 165.973 427.295 163.305C434.739 160.637 439.054 165.574 439.054 165.574ZM428.357 154.285C428.357 154.285 423.777 158.681 420.923 159.298C414.266 160.732 411.535 156.773 405.514 154.058C405.514 154.058 409.155 154.684 416.599 152.016C424.043 149.348 428.357 154.285 428.357 154.285ZM454.624 181.287C454.624 181.287 459.849 177.679 461.025 175.011C463.775 168.773 458.863 165.631 457.412 159.184C457.412 159.184 458.872 162.536 454.766 169.305C450.66 176.065 454.615 181.287 454.615 181.287L454.624 181.287ZM446.412 168.498C446.412 168.498 450.907 164.017 451.58 161.169C453.164 154.542 447.778 152.339 445.198 146.244C445.198 146.244 447.237 149.282 444.411 156.668C441.585 164.064 446.412 168.489 446.412 168.489L446.412 168.498ZM436.579 158.748C436.579 158.748 440.552 153.801 440.922 150.905C441.766 144.136 436.171 142.541 432.947 136.769C432.947 136.769 435.308 139.57 433.298 147.222C431.287 154.874 436.579 158.748 436.579 158.748ZM425.209 145.446C425.209 145.446 427.532 139.532 427.011 136.664C425.806 129.952 419.984 130.104 415.186 125.556C415.186 125.556 418.268 127.522 418.637 135.43C419.007 143.339 425.209 145.456 425.209 145.456L425.209 145.446ZM37.8349 428.484C37.8349 428.484 43.8184 426.377 46.6727 426.994C53.3295 428.437 54.1829 433.174 58.5449 438.13C58.5449 438.13 55.4915 436.061 47.6114 435.406C39.7314 434.76 37.8349 428.484 37.8349 428.484ZM38.7262 442.526C38.7262 442.526 44.7097 440.409 47.5545 441.036C54.2113 442.479 55.0647 447.216 59.4267 452.172C59.4267 452.172 56.3733 450.093 48.4933 449.447C40.6132 448.802 38.7167 442.526 38.7167 442.526L38.7262 442.526ZM42.7278 456.207C42.7278 456.207 48.7113 454.09 51.5656 454.707C58.2224 456.15 59.0758 460.888 63.4378 465.853C63.4378 465.853 60.3844 463.774 52.5044 463.128C44.6243 462.483 42.7278 456.207 42.7278 456.207ZM47.8201 470.913C47.8201 470.913 53.8036 468.796 56.6579 469.413C63.3147 470.856 64.1681 475.594 68.5301 480.559C68.5301 480.559 65.4767 478.48 57.5967 477.835C49.7166 477.189 47.8201 470.913 47.8201 470.913ZM35.0185 435.463C35.0185 435.463 28.779 436.592 26.598 438.539C21.5248 443.086 24.7014 447.976 23.3644 454.451C23.3644 454.451 23.4118 450.786 29.9453 446.324C36.4694 441.862 35.0185 435.472 35.0185 435.472L35.0185 435.463ZM37.2375 450.511C37.2375 450.511 31.2919 452.742 29.5091 455.049C25.3273 460.432 29.3385 464.666 29.1773 471.284C29.1773 471.284 28.5704 467.676 34.1936 462.112C39.8167 456.549 37.247 450.52 37.247 450.52L37.2375 450.511ZM42.1684 463.451C42.1684 463.451 36.5073 466.318 34.9806 468.806C31.4246 474.616 35.8624 478.385 36.4219 484.984C36.4219 484.984 35.4262 481.462 40.4046 475.309C45.383 469.167 42.1684 463.451 42.1684 463.451ZM47.0425 480.265C47.0425 480.265 42.4909 484.689 41.7797 487.519C40.1107 494.127 45.4684 496.396 47.9718 502.519C47.9718 502.519 45.971 499.453 48.8916 492.104C51.8123 484.756 47.0425 480.256 47.0425 480.256L47.0425 480.265ZM362.453 103.9C362.453 103.9 369.869 117.629 384.785 116.936C399.701 116.252 397.444 93.5991 397.444 93.5991C397.444 93.5991 393.518 102.865 384.785 102.865C376.051 102.865 372.495 94.9757 362.453 103.891L362.453 103.9ZM349.737 103.9C349.737 103.9 342.322 117.629 327.405 116.936C312.489 116.252 314.756 93.5991 314.756 93.5991C314.756 93.5991 318.681 102.865 327.405 102.865C336.129 102.865 339.695 94.9757 349.737 103.891L349.737 103.9ZM211.405 315.049C211.405 315.049 218.82 328.777 233.736 328.084C248.652 327.401 246.395 304.748 246.395 304.748C246.395 304.748 242.47 314.014 233.736 314.014C225.003 314.014 221.447 306.124 211.405 315.039L211.405 315.049ZM198.688 315.049C198.688 315.049 191.273 328.777 176.357 328.084C161.441 327.401 163.707 304.748 163.707 304.748C163.707 304.748 167.633 314.014 176.357 314.014C185.081 314.014 188.646 306.124 198.688 315.039L198.688 315.049ZM177.258 564.829C177.258 564.829 185.555 580.191 202.263 579.422C218.972 578.652 216.43 553.303 216.43 553.303C216.43 553.303 212.03 563.68 202.263 563.68C192.496 563.68 188.504 554.841 177.258 564.829ZM163.024 564.829C163.024 564.829 154.727 580.191 138.019 579.421C121.32 578.652 123.852 553.303 123.852 553.303C123.852 553.303 128.252 563.68 138.019 563.68C147.786 563.68 151.778 554.841 163.024 564.829ZM564.233 539.727C564.233 539.727 571.649 553.446 586.565 552.762C601.481 552.079 599.215 529.426 599.215 529.426C599.215 529.426 595.289 538.692 586.565 538.692C577.841 538.692 574.275 530.802 564.233 539.717L564.233 539.727ZM551.517 539.727C551.517 539.727 544.102 553.446 529.186 552.762C514.27 552.079 516.527 529.426 516.527 529.426C516.527 529.426 520.452 538.692 529.186 538.692C537.919 538.692 541.475 530.802 551.517 539.717L551.517 539.727ZM355.815 186.129C355.815 186.129 368.285 197.692 368.655 209.256C369.025 220.82 357.655 221.56 356.925 221.56C356.195 221.56 345.195 222.292 344.455 210.918C344 203.911 347.205 194.759 355.825 186.138L355.815 186.129ZM591.287 188.103C591.287 188.103 596.531 197.825 594.331 205.012C592.141 212.199 585.001 210.263 584.545 210.111C584.09 209.959 577.177 208.098 579.112 200.949C580.297 196.553 584.185 191.597 591.287 188.103ZM446.611 584.387C446.611 584.387 460.124 589.913 463.907 599.103C467.691 608.293 458.768 612.319 458.18 612.537C457.592 612.755 448.972 616.676 444.942 607.742C442.467 602.245 442.278 593.919 446.602 584.377L446.611 584.387ZM54.4484 339.192C54.4484 339.192 53.8036 322.188 61.7121 313.748C69.6206 305.308 78.1833 312.837 78.6954 313.359C79.2075 313.881 87.5142 321.144 79.9945 329.717C75.367 334.987 66.643 339.192 54.4579 339.192L54.4484 339.192ZM76.5145 600.09C76.5145 600.09 76.0309 571.541 47.346 573.507C47.346 573.507 45.0322 599.445 76.5145 600.09ZM687.782 171.175C687.782 171.175 710.92 182.844 687.782 212.199C687.782 212.199 666.304 187.8 687.782 171.175ZM446.611 36.5775C446.611 36.5775 460.124 42.1031 463.908 51.2934C467.691 60.4836 458.768 64.5091 458.18 64.7275C457.592 64.9459 448.972 68.8669 444.942 59.933C442.467 54.4359 442.278 46.1096 446.602 36.568L446.611 36.5775Z" stroke="#009900" stroke-opacity="0.4" stroke-width="2.19504" stroke-linecap="round" stroke-linejoin="round"/>
</svg>
