<svg width="764" height="661" viewBox="0 0 764 661" fill="none" xmlns="http://www.w3.org/2000/svg">
<path opacity="0.09" d="M195.479 215.83V242.588M195.479 171.304V200.632M195.479 115.608L195.479 155.183M195.064 129.949C164.232 111.269 178.717 77.6129 178.717 77.6129L183.939 80.0828M195.692 129.949C229.757 111.269 211.687 77.6129 211.687 77.6129L206.178 79.9382M195.692 171.304C148.651 161.769 164.232 103.347 164.232 103.347C164.232 103.347 168.125 105.739 176.239 108.877M195.692 215.83C135.453 215.874 150.661 144.836 150.661 144.836C150.661 144.836 161.754 152.279 169.528 154.638M195.287 215.83C255.526 215.874 240.318 144.836 240.318 144.836C240.318 144.836 229.214 152.279 221.45 154.638M195.224 171.304C242.264 161.769 226.683 103.347 226.683 103.347C226.683 103.347 222.791 105.739 214.676 108.877M184.705 227.768C184.705 227.768 154.788 233.22 141.983 197.784C132.751 172.228 137.516 138.004 137.633 53.8369M207.273 227.723C207.273 227.723 235.946 233.209 248.751 197.784C257.994 172.228 253.218 138.004 253.091 53.8369M328.698 303.235V290.373M328.698 324.63V310.533M328.698 351.41V332.385M328.9 344.512C343.726 353.491 336.76 369.668 336.76 369.668L334.25 368.477M328.591 344.512C312.213 353.491 320.902 369.668 320.902 369.668L323.55 368.555M328.591 324.63C351.202 329.214 343.715 357.296 343.715 357.296C343.715 357.296 341.843 356.139 337.94 354.637M328.591 303.235C357.552 303.213 350.235 337.358 350.235 337.358C350.235 337.358 344.896 333.787 341.163 332.641M328.794 303.235C299.844 303.213 307.15 337.358 307.15 337.358C307.15 337.358 312.489 333.787 316.222 332.641M328.826 324.63C306.215 329.214 313.702 357.296 313.702 357.296C313.702 357.296 315.574 356.139 319.477 354.637M333.877 297.494C333.877 297.494 348.256 294.879 354.414 311.902C358.849 324.185 356.563 340.64 356.499 381.094M323.029 297.516C323.029 297.516 309.246 294.88 303.088 311.902C298.642 324.185 300.94 340.64 301.003 381.094M372.962 572.782V599.54M372.962 528.245V557.584M372.962 472.56V512.124M372.548 486.89C341.716 468.21 356.201 434.554 356.201 434.554L361.423 437.024M373.175 486.89C407.24 468.21 389.171 434.554 389.171 434.554L383.662 436.879M373.175 528.245C326.135 518.71 341.715 460.288 341.715 460.288C341.715 460.288 345.608 462.68 353.723 465.818M373.175 572.782C312.936 572.826 328.145 501.799 328.145 501.799C328.145 501.799 339.238 509.242 347.012 511.601M372.771 572.782C433.01 572.826 417.801 501.799 417.801 501.799C417.801 501.799 406.698 509.242 398.934 511.601M372.707 528.245C419.747 518.71 404.167 460.288 404.167 460.288C404.167 460.288 400.274 462.68 392.159 465.818M362.189 584.72C362.189 584.72 332.271 590.172 319.466 554.736C310.235 529.18 314.999 494.945 315.116 410.789M384.757 584.676C384.757 584.676 413.43 590.172 426.235 554.736C435.477 529.18 430.702 494.945 430.574 410.789M668.871 326.21V299.452M668.871 370.736V341.408M668.871 426.432V386.857M669.286 412.091C700.118 430.771 685.632 464.438 685.632 464.438L680.41 461.968M668.658 412.091C634.593 430.771 652.663 464.438 652.663 464.438L658.172 462.113M668.658 370.736C715.699 380.271 700.118 438.693 700.118 438.693C700.118 438.693 696.225 436.301 688.11 433.163M668.658 326.21C728.897 326.165 713.689 397.204 713.689 397.204C713.689 397.204 702.585 389.761 694.811 387.402M669.063 326.21C608.824 326.165 624.032 397.204 624.032 397.204C624.032 397.204 635.125 389.761 642.899 387.402M669.126 370.736C622.086 380.271 637.667 438.693 637.667 438.693C637.667 438.693 641.559 436.301 649.674 433.163M679.645 314.272C679.645 314.272 709.562 308.82 722.367 344.256C731.599 369.812 726.834 404.036 726.717 488.203M657.076 314.316C657.076 314.316 628.403 308.82 615.598 344.256C606.356 369.812 611.131 404.036 611.259 488.203M314.68 179.548C318.764 172.027 319.551 159.066 307.246 141.932C307.246 141.932 288.475 160.979 298.812 178.948M314.436 207.296C321.615 195.447 317.435 180.605 306.576 165.474C306.576 165.474 289.783 185.534 298.387 205.06M306.566 250.176V257.14M315.127 217.91C322.614 210.946 334.452 207.285 334.452 207.285C334.186 240.941 306.576 234.744 306.576 234.744V239.884M304.864 234.755C304.864 234.755 277.254 240.952 276.978 207.296C276.978 207.296 288.815 210.957 296.302 217.922M316.329 184.077C316.329 184.077 321.051 178.035 330.697 176.077C330.697 176.077 335.547 197.428 325.209 211.157M295.898 184.077C295.898 184.077 291.187 178.035 281.53 176.077C281.53 176.077 276.68 197.428 287.007 211.157M327.22 177.012C329.9 170.659 327.22 150.543 327.22 150.543C319.977 153.069 316.329 160.334 316.329 160.334M297.355 141.932L297.302 119.112M296.707 160.345C296.707 160.345 293.059 153.08 285.827 150.554C285.827 150.554 283.136 170.67 285.827 177.023M307.246 128.692V103.625M317.371 119.112V141.932M285.816 150.554V134.221M326.911 150.554V134.221M250.517 471.08C246.433 478.601 245.646 491.563 257.951 508.697C257.951 508.697 276.723 489.649 266.385 471.681M250.762 443.332C243.583 455.181 247.762 470.023 258.621 485.154C258.621 485.154 275.414 465.094 266.81 445.569M258.621 400.453V393.488M250.07 432.718C242.583 439.683 230.746 443.343 230.746 443.343C231.012 409.688 258.621 415.885 258.621 415.885V410.745M260.334 415.873C260.334 415.873 287.943 409.676 288.22 443.332C288.22 443.332 276.382 439.672 268.895 432.707M248.869 466.552C248.869 466.552 244.146 472.593 234.5 474.551C234.5 474.551 229.65 453.201 239.988 439.471M269.299 466.552C269.299 466.552 274.011 472.593 283.668 474.551C283.668 474.551 288.517 453.201 278.19 439.471M237.978 473.617C235.298 479.959 237.978 500.086 237.978 500.086C245.221 497.56 248.868 490.295 248.868 490.295M267.842 508.697L267.895 531.516M268.491 490.284C268.491 490.284 272.139 497.549 279.371 500.074M279.371 500.074C279.371 500.074 282.062 479.959 279.371 473.606M279.371 500.074V516.407M257.941 521.937V547.014M247.826 531.516V508.697M238.286 500.074V516.407M571.025 294.212C575.109 286.68 575.896 273.729 563.602 256.595C563.602 256.595 544.83 275.632 555.168 293.611M570.781 321.96C577.96 310.111 573.78 295.269 562.921 280.138C562.921 280.138 546.138 300.198 554.732 319.724M562.921 364.85V371.804M571.483 332.574C578.97 325.609 590.807 321.96 590.807 321.96C590.541 355.616 562.932 349.419 562.932 349.419V354.559M561.209 349.419C561.209 349.419 533.599 355.616 533.323 321.96C533.323 321.96 545.16 325.62 552.648 332.574M572.685 298.74C572.685 298.74 577.407 292.699 587.053 290.74C587.053 290.74 591.903 312.091 581.565 325.82M552.254 298.74C552.254 298.74 547.532 292.699 537.885 290.74C537.885 290.74 533.036 312.091 543.363 325.82M583.565 291.675C586.245 285.322 583.565 265.207 583.565 265.207C576.322 267.732 572.674 274.997 572.674 274.997M553.7 256.595L553.658 233.776M553.052 275.009C553.052 275.009 549.404 267.732 542.171 265.218M542.171 265.218C542.171 265.218 539.481 285.333 542.171 291.686M542.171 265.218L542.172 248.885M563.602 243.355V218.289M573.716 233.776V256.595M583.256 265.218V248.885M779.968 460.755C775.299 469.356 774.406 484.153 788.455 503.724C788.455 503.724 809.907 481.972 798.091 461.445M780.256 429.058C772.056 442.587 776.82 459.543 789.242 476.832C789.242 476.832 808.418 453.913 798.602 431.617M789.232 380.07V372.115M779.458 416.93C770.907 424.886 757.389 429.058 757.389 429.058C757.698 390.607 789.242 397.694 789.242 397.694V391.819M791.189 397.694C791.189 397.694 822.733 390.607 823.042 429.058C823.042 429.058 809.513 424.886 800.963 416.93M778.086 455.582C778.086 455.582 772.694 462.48 761.665 464.716C761.665 464.716 756.124 440.328 767.929 424.652M801.42 455.582C801.42 455.582 806.812 462.48 817.831 464.716C817.831 464.716 823.372 440.328 811.566 424.652M765.653 463.648C762.601 470.902 765.653 493.877 765.653 493.877C773.927 490.996 778.086 482.696 778.086 482.696M799.761 503.724L799.825 529.792M800.505 482.696C800.505 482.696 804.674 490.996 812.938 493.877M812.938 493.877C812.938 493.877 816.012 470.902 812.938 463.648M812.938 493.877L812.938 512.535M788.455 518.855V547.493M776.895 529.792V503.724M766.004 493.877V512.535M482.156 555.704C491.005 539.771 491.302 511.356 491.302 511.356C491.302 511.356 490.473 539.771 499.321 555.704M448.314 630.259C448.314 630.259 442.358 636.367 437.583 640.928M533.163 630.259C533.163 630.259 539.119 636.367 543.884 640.928M429.617 584.742C429.617 584.742 428.49 585.61 424.448 590.461M552.754 584.742C552.754 584.742 553.881 585.61 557.933 590.461M834.709 378.98C834.709 378.98 826.998 349.953 813.246 336.735M756.56 272.405C756.56 272.405 748.7 268.177 742.489 265.129M750.423 324.93C750.423 324.93 749.019 324.419 743.468 320.847M785.222 681.871C785.222 681.871 755.007 659.175 745.807 635.844M696.47 535.321C696.47 535.321 695.066 523.461 694.3 514.238M760.08 550.92C760.08 550.92 760.112 548.906 758.442 540.283M351.447 674.395C351.447 674.395 343.736 645.367 329.985 632.15M273.298 567.82C273.298 567.82 265.428 563.592 259.227 560.543M267.172 620.345C267.172 620.345 265.768 619.833 260.217 616.262M158.436 371.726C158.436 371.726 162.158 343.533 154.979 326.677M128.901 248.662C128.901 248.662 123.594 241.909 119.308 236.836M104.748 291.798C104.748 291.798 103.706 290.807 100.186 285.534M378.163 384.154C378.163 384.154 397.094 363.715 414.206 359.243M489.016 332.663C489.016 332.663 497.364 332.874 503.831 333.275M471.425 379.125C471.425 379.125 472.808 379.37 478.955 379.025M515.817 224.72C515.817 224.72 522.368 221.827 524.272 219.034C528.707 212.526 524.028 207.764 523.9 200.009C523.9 200.009 524.751 204.214 518.699 210.99C512.658 217.777 515.817 224.708 515.817 224.708V224.72ZM515.817 224.72C524.517 236.279 527.144 245.736 527.144 245.736M465.575 167.243C465.575 167.243 460.438 172.394 457.237 173.118C449.771 174.798 446.708 170.158 439.955 166.976C439.955 166.976 444.039 167.71 452.387 164.595C460.736 161.469 465.575 167.254 465.575 167.254V167.243ZM465.575 167.243C459.779 162.67 442.709 150.677 439.955 149.075M36.8837 493.466C36.8837 493.466 29.7686 493.276 26.9396 494.99C20.335 499.006 22.7174 505.359 19.7714 512.48C19.7714 512.48 20.6541 508.285 28.8434 504.725C37.022 501.154 36.8837 493.477 36.8837 493.477V493.466ZM36.8837 493.466C33.5123 479.18 34.8524 469.434 34.8524 469.434M59.9732 567.508C59.9732 567.508 66.6842 565.027 69.8854 565.75C77.3515 567.442 78.3086 572.993 83.2009 578.812C83.2009 578.812 79.7763 576.376 70.9383 575.619C62.1003 574.863 59.9732 567.508 59.9732 567.508ZM59.9732 567.508C63.451 574.173 74.2566 592.464 76.139 595.112M397.838 100.432C406.113 100.399 421.991 95.9484 415.398 74.3864C411.739 62.4372 401.061 53.236 401.061 53.236C401.061 53.236 387.905 60.6014 383.236 75.1652C381.269 81.3067 380.715 100.51 397.849 100.443L397.838 100.432ZM397.838 100.432V132.074M410.25 63.9059C410.25 63.9059 427.033 46.5717 399.604 23.8638C399.604 23.8638 372.048 41.7765 389.213 63.9059M401.561 100.432C401.561 100.432 414.057 113.772 428.532 101.623C441.156 91.0196 428.755 78.681 437.083 70.4256C437.083 70.4256 423.172 64.7291 414.674 72.2836M396.371 100.432C396.371 100.432 383.874 113.772 369.4 101.623C356.775 91.0196 369.176 78.681 360.849 70.4256C360.849 70.4256 374.76 64.7291 383.268 72.2836M430.819 68.7678C430.819 68.7678 437.072 62.8823 433.403 51.6673C430.404 42.5219 429.83 35.3902 431.872 29.2487C431.872 29.2487 417.344 31.3737 411.218 36.7253M366.496 68.7678C366.496 68.7678 360.242 62.8823 363.912 51.6673C366.911 42.5219 367.485 35.3902 365.443 29.2487C365.443 29.2487 379.971 31.3737 386.097 36.7253M420.588 31.9745C420.588 31.9745 419.311 21.3826 412.654 14.696C405.996 7.99819 402.082 3.63684 399.476 1C399.476 1 395.243 5.9399 383.598 15.497C376.121 21.6274 376.738 31.9856 376.738 31.9856M228.427 347.883C236.702 347.85 252.58 343.399 245.987 321.837C242.328 309.888 231.65 300.687 231.65 300.687C231.65 300.687 218.494 308.052 213.825 322.616C211.858 328.758 211.304 347.961 228.438 347.894L228.427 347.883ZM228.427 347.883L228.427 379.514M240.839 311.346C240.839 311.346 257.622 294.012 230.193 271.304C230.193 271.304 202.637 289.216 219.802 311.346M232.15 347.883C232.15 347.883 244.646 361.223 259.121 349.074C271.745 338.471 259.345 326.132 267.672 317.877C267.672 317.877 253.761 312.18 245.263 319.735M226.96 347.883C226.96 347.883 214.463 361.223 199.988 349.074C187.364 338.471 199.765 326.132 191.437 317.877C191.437 317.877 205.349 312.18 213.857 319.735M261.408 316.208C261.408 316.208 267.661 310.322 263.992 299.107C260.993 289.962 260.419 282.83 262.46 276.689C262.46 276.689 247.933 278.814 241.807 284.165M197.085 316.208C197.085 316.208 190.831 310.322 194.5 299.107C197.5 289.962 198.074 282.83 196.032 276.689C196.032 276.689 210.56 278.814 216.686 284.165M251.176 279.414C251.176 279.414 249.9 268.823 243.242 262.136C236.585 255.449 232.671 251.077 230.065 248.44C230.065 248.44 225.832 253.38 214.186 262.937C206.71 269.067 207.327 279.426 207.327 279.426M189.247 638.191C198.51 638.147 216.282 633.173 208.901 609.041C204.806 595.668 192.841 585.354 192.841 585.354C192.841 585.354 178.111 593.599 172.889 609.898C170.677 616.774 170.071 638.269 189.247 638.191ZM189.247 638.191L189.247 673.616M203.136 597.303C203.136 597.303 221.929 577.9 191.225 552.477C191.225 552.477 160.382 572.526 179.59 597.303M193.405 638.191C193.405 638.191 207.401 653.133 223.599 639.526C237.723 627.655 223.843 613.848 233.171 604.602C233.171 604.602 217.6 598.227 208.082 606.683M187.598 638.191C187.598 638.191 173.613 653.133 157.415 639.526C143.291 627.655 157.17 613.848 147.843 604.602C147.843 604.602 163.413 598.227 172.932 606.683M226.162 602.744C226.162 602.744 233.171 596.157 229.055 583.607C225.694 573.372 225.056 565.383 227.343 558.508C227.343 558.508 211.081 560.888 204.221 566.874M154.15 602.744C154.15 602.744 147.141 596.157 151.267 583.607C154.628 573.372 155.266 565.383 152.98 558.508C152.98 558.508 169.252 560.888 176.101 566.874M214.708 561.545C214.708 561.545 213.282 549.696 205.816 542.197C198.361 534.709 193.979 529.825 191.065 526.854C191.065 526.854 186.332 532.384 173.293 543.076C164.923 549.941 165.615 561.534 165.615 561.534M624.149 611.178C632.423 611.144 648.302 606.694 641.708 585.132C638.05 573.183 627.372 563.981 627.372 563.981C627.372 563.981 614.216 571.347 609.547 585.899C607.579 592.041 607.026 611.244 624.16 611.178H624.149ZM624.149 611.178V642.808M636.561 574.64C636.561 574.64 653.343 557.306 625.915 534.598C625.915 534.598 598.358 552.511 615.524 574.64M627.871 611.178C627.871 611.178 640.368 624.518 654.843 612.368C667.467 601.765 655.066 589.426 663.394 581.171C663.394 581.171 649.483 575.475 640.985 583.029M622.682 611.178C622.682 611.178 610.185 624.518 595.71 612.368C583.097 601.765 595.487 589.426 587.159 581.171C587.159 581.171 601.071 575.475 609.568 583.029M657.129 579.502C657.129 579.502 663.383 573.616 659.714 562.401C656.715 553.256 656.14 546.124 658.182 539.983C658.182 539.983 643.654 542.108 637.528 547.459M592.796 579.502C592.796 579.502 586.542 573.616 590.211 562.401C593.211 553.256 593.785 546.124 591.743 539.983C591.743 539.983 606.271 542.108 612.397 547.459M646.888 542.709C646.888 542.709 645.611 532.117 638.954 525.43C632.296 518.733 628.382 514.371 625.776 511.734C625.776 511.734 621.543 516.674 609.898 526.231C602.421 532.362 603.038 542.72 603.038 542.72M412.239 283.097C412.239 283.097 408.325 293.11 392.34 291.23M404.592 256.929C404.592 256.929 420.747 264.984 425.491 247.305C426.426 243.789 428.373 234.811 430.425 231.796C430.425 231.796 427.426 231.573 420.737 234.755M389.522 256.929C389.522 256.929 373.367 264.984 368.623 247.305C367.687 243.789 365.741 234.811 363.688 231.796C363.688 231.796 381.194 233.231 385.034 239.784M420.737 234.766C420.737 234.766 429.139 231.907 426.384 218.522C425.055 212.08 427.235 205.16 428.575 204.226C428.575 204.226 412.239 202.846 404.592 224.853M383.832 216.776C383.832 216.776 378.067 206.15 362.582 208.153C362.582 208.153 364.986 208.654 365.89 216.776C367.687 232.819 373.101 233.387 373.101 233.387M410.037 214.25C410.037 214.25 416.227 200.532 396.137 189.206C396.137 189.206 385.331 197.105 381.928 212.058M420.779 205.705C420.779 205.705 424.789 195.414 421.97 181.418C421.97 181.418 415.164 183.431 408.282 187.715M372.282 208.164C372.282 208.164 365.507 198.64 368.325 184.633C368.325 184.633 385.044 184.633 388.49 197.45M409.399 185.456C409.399 185.456 406.134 171.838 393.872 167.41C393.872 167.41 382.226 175.832 380.514 187.715M397.679 258.286C397.679 258.286 397.105 283.097 426.831 288.337C449.569 292.354 477.423 265.885 483.549 307.307M385.034 288.871C388.373 285.868 395.137 267.755 358.349 267.22C358.349 267.22 369.336 303.046 385.034 288.871ZM385.034 288.871L374.781 279.704M438.327 278.179C438.327 278.179 469.5 282.952 470.776 245.28C470.776 245.28 421.715 237.537 438.327 278.179ZM438.327 278.179L450.739 263.215M657.491 263.004C657.491 263.004 653.077 268.3 643.633 263.638M658.034 245.247C658.034 245.247 666.35 253.736 672.806 243.912C674.093 241.965 677.082 236.869 678.943 235.467C678.943 235.467 677.145 234.677 672.391 235.156M648.77 241.943C648.77 241.943 637.231 243.344 637.858 231.451C637.986 229.081 638.592 223.14 637.933 220.837C637.933 220.837 648.398 225.554 649.451 230.427M672.391 235.167C672.391 235.167 678.124 235.256 679.113 226.422C679.591 222.172 682.314 218.389 683.325 218.122C683.325 218.122 673.561 213.694 664.457 225.543M653.322 216.019C653.322 216.019 651.908 208.22 641.985 206.061C641.985 206.061 643.357 206.896 642.293 212.081C640.187 222.339 643.399 223.874 643.399 223.874M669.924 220.213C669.924 220.213 676.475 213.137 666.393 201.778C666.393 201.778 658.172 204.259 653.088 212.703M678.241 217.321C678.241 217.321 682.761 211.88 683.846 202.657C683.846 202.657 679.262 202.401 674.167 203.525M647.941 208.197C647.941 208.197 645.686 200.866 650.217 192.866C650.217 192.866 660.49 196.526 660.044 205.16M675.305 202.379C675.305 202.379 676.029 193.3 669.381 187.882C669.381 187.882 660.533 190.507 657.108 197.428M653.514 244.568C653.514 244.568 648.196 259.688 665.404 269.423C678.57 276.878 700.99 266.72 696.459 293.522M639.613 260.589C642.272 259.477 650.057 249.831 627.553 241.431C627.553 241.431 627.127 265.852 639.613 260.589ZM639.613 260.589L635.157 252.712M674.508 265.707C674.508 265.707 692.716 275.476 701.043 252.601C701.043 252.601 672.445 237.08 674.508 265.707ZM674.508 265.707L685.133 259.221M530.387 732.261C530.387 732.261 530.122 741.551 516.732 745.078M516.689 713.647C516.689 713.647 532.004 715.016 530.717 699.306C530.462 696.191 529.42 688.347 530.207 685.276C530.207 685.276 527.729 686.044 523.262 690.717M504.575 718.398C504.575 718.398 493.908 729.98 484.996 717.263C483.22 714.737 479.072 708.128 476.551 706.348C476.551 706.348 491.037 701.976 496.025 706.026M523.273 690.716C523.273 690.716 529.207 685.766 523.124 675.864C520.199 671.102 519.944 664.849 520.752 663.681C520.752 663.681 507.224 667.731 507.426 687.835M488.399 687.913C488.399 687.913 480.688 681.193 468.819 687.69C468.819 687.69 470.893 687.334 473.967 693.576C480.04 705.915 484.56 704.657 484.56 704.657M508.744 677.599C508.744 677.599 509.755 664.615 490.335 661.856C490.335 661.856 483.921 671.624 485.506 684.72M514.924 667.341C514.924 667.341 515.179 657.806 508.872 647.437C508.872 647.437 503.991 651.197 499.683 656.827M476.626 684.631C476.626 684.631 468.426 679.112 466.65 666.963C466.65 666.963 480.093 661.678 486.57 670.901M499.917 654.657C499.917 654.657 493.366 644.733 482.22 645.056C482.22 645.056 475.285 655.514 477.338 665.605M511.52 716.918C511.52 716.918 518.221 737.045 543.639 731.871C563.081 727.91 577.832 697.837 594.721 729.212M510.191 745.5C512.01 742.029 512.222 725.329 482.486 736.522C482.486 736.522 501.661 761.855 510.191 745.5ZM510.191 745.5L499.3 741.373M549.946 720.067C549.946 720.067 576.396 714.048 566.548 683.362C566.548 683.362 524.868 692.63 549.946 720.067ZM549.946 720.067L555.604 704.112M94.4744 338.604C94.4744 338.604 104.014 334.421 114.033 347.572M82.1906 362.747C82.1906 362.747 76.2028 345.102 60.9091 354.091C57.8674 355.883 50.4226 360.8 46.9342 361.401C46.9342 361.401 48.9018 363.782 55.7935 366.475M92.8578 373.896C92.8578 373.896 109.726 380.148 101.132 396.158C99.4199 399.34 94.719 407.129 94.1341 410.767C94.1341 410.767 82.7329 396.804 84.4452 389.327M55.7935 366.486C55.7935 366.486 47.9233 362.291 40.8188 373.795C37.4049 379.325 31.1832 382.618 29.6091 382.284C29.6091 382.284 40.2232 395.346 60.5049 385.433M69.726 406.506C69.726 406.506 66.6205 418.288 78.9256 428.323C78.9256 428.323 77.5643 426.187 82.414 419.779C91.9965 407.106 88.54 402.689 88.54 402.689M49.4975 388.904C49.4975 388.904 35.8416 394.033 42.4036 416.897C42.4036 416.897 55.3895 419.3 67.886 411.245M36.1288 386.991C36.1288 386.991 26.3442 391.307 18.8675 403.279C18.8675 403.279 25.036 406.884 32.7999 408.953M72.0764 421.136C72.0764 421.136 70.4279 432.874 58.9736 440.707C58.9736 440.707 47.1577 428.346 53.3794 416.73M30.4814 409.732C30.4814 409.732 23.5897 421.77 29.2584 433.975C29.2584 433.975 43.1907 436.634 52.4329 429.503M87.9976 366.908C87.9976 366.908 105.174 349.786 87.6998 324.096C74.3311 304.437 36.7562 302.545 60.42 268.722M117.606 354.637C113.214 354.292 96.1867 362.091 121.839 389.683C121.839 389.683 138.282 356.228 117.606 354.637ZM117.606 354.637L118.659 368.7M72.7038 322.772C72.7038 322.772 53.8898 296.337 27.5246 322.027C27.5246 322.027 56.974 363.793 72.7038 322.772ZM72.7038 322.772L53.8153 324.174M543.384 427.689C532.036 413.793 521.773 423.205 521.773 423.205M543.384 427.689C543.384 427.689 570.408 414.794 566.441 470.88C566.441 470.88 518.306 447.593 543.384 427.689ZM557.625 465.884C557.625 465.884 559.646 487.535 582.724 493.51M582.724 493.51C582.724 493.51 580.002 463.003 567.058 459.342M582.724 493.51L587.659 479.369C587.659 479.369 589.148 467.798 580.544 457.729M536.152 439.872C536.152 439.872 521.719 448.94 536.067 468.699C536.067 468.699 541.427 464.271 544.011 455.281M553.53 426.977C553.53 426.977 567.292 422.026 574.875 435.856C574.875 435.856 572.897 440.651 564.57 440.651M544.012 456.35C544.012 456.35 536.152 476.042 551.063 484.743C551.063 484.743 559.252 479.358 557.625 465.873M571.036 439.36C571.036 439.36 579.8 443.8 583.33 452.289C583.33 452.289 582.714 460.533 571.472 461.301M553.53 482.384C553.53 482.384 557.795 491.307 567.558 493.043L582.735 493.51M499.353 427.689C510.701 413.793 520.965 423.205 520.965 423.205M499.353 427.689C499.353 427.689 472.339 414.794 476.296 470.88C476.296 470.88 524.421 447.593 499.353 427.689ZM485.113 465.884C485.113 465.884 483.092 487.535 460.024 493.51M460.024 493.51C460.024 493.51 462.746 463.003 475.69 459.342M460.024 493.51L475.19 493.043C484.953 491.307 489.218 482.384 489.218 482.384M460.024 493.51L455.089 479.369C455.089 479.369 453.611 467.798 462.204 457.729M506.585 439.872C506.585 439.872 521.018 448.94 506.671 468.699C506.671 468.699 501.31 464.271 498.726 455.281M489.218 426.977C489.218 426.977 475.456 422.026 467.873 435.856C467.873 435.856 469.851 440.651 478.168 440.651M498.726 456.35C498.726 456.35 506.585 476.042 491.685 484.743C491.685 484.743 483.496 479.358 485.113 465.873M471.712 439.36C471.712 439.36 462.938 443.8 459.418 452.289C459.418 452.289 460.034 460.533 471.276 461.301M521.815 423.206V395.313M529.398 412.536C529.398 412.536 536.088 383.92 562.241 393.789C562.241 393.789 555.583 418.121 529.398 412.536ZM529.398 412.536L543.384 404.214M513.509 412.536C513.509 412.536 506.819 383.92 480.678 393.789C480.678 393.789 487.335 418.121 513.509 412.536ZM513.509 412.536L500.8 404.214M131.56 496.125C148.375 501.065 151.906 487.268 151.906 487.268M131.56 496.125C131.56 496.125 115.958 522.571 89.4332 473.65C89.4332 473.65 141.813 464.994 131.56 496.125ZM99.4201 472.66C99.4201 472.66 86.2322 455.849 63.8766 464.305C63.8766 464.305 82.3609 488.069 95.0596 483.586M131.092 481.783C131.092 481.783 138.261 465.851 115.83 457.785C115.83 457.785 113.725 464.583 116.362 473.561M123.509 502.611C123.509 502.611 114.703 514.738 101.047 507.651C101.047 507.651 100.143 502.511 107.056 497.671M115.799 472.66C115.799 472.66 111.853 451.721 94.8362 453.168C94.8362 453.168 90.9011 462.402 99.4094 472.671M102.377 502.511C102.377 502.511 92.7302 503.913 85.2854 498.917C85.2854 498.917 81.4248 491.708 90.3479 484.531M94.0492 456.561C94.0492 456.561 85.7642 451.632 76.7241 455.871L63.8659 464.316M63.8766 464.316L67.3012 478.935C67.3012 478.935 72.2147 489.416 84.7113 492.776M168.157 470.502C166.104 488.648 152.576 486.801 152.576 486.801M168.157 470.502C168.157 470.502 197.457 465.495 164.349 421.192C164.349 421.192 136.729 468.544 168.157 470.502ZM159.68 430.471C159.68 430.471 149.853 411.312 165.838 392.91M165.838 392.91C165.838 392.91 179.792 419.845 170.986 430.415M165.838 392.91L153.48 402.122C146.301 409.242 147.492 419.145 147.492 419.145M165.838 392.91L177.462 401.799C177.462 401.799 184.843 410.555 183.057 423.918M155.66 464.583C155.66 464.583 138.845 465.45 140.26 440.673C140.26 440.673 147.067 441.229 154.001 447.204M176.952 465.184C176.952 465.184 191.023 461.289 189.959 445.39C189.959 445.39 185.769 442.565 178.856 447.393M153.427 446.314C153.427 446.314 136.421 434.52 144.184 418.621C144.184 418.621 153.852 418.332 159.67 430.471M184.918 444.712C184.918 444.712 189.842 435.911 188.268 426.81C188.268 426.81 183.365 420.324 173.613 426.221M151.874 487.291L166.7 510.466M151.246 500.575C151.246 500.575 160.903 528.245 133.932 535.266C133.932 535.266 126.519 511.178 151.246 500.575ZM151.246 500.575L144.046 515.628M164.455 491.318C164.455 491.318 185.226 511.211 201.711 487.791C201.711 487.791 183.248 471.447 164.455 491.318ZM164.455 491.318L179.441 490.84M94.4321 602.8C94.4321 602.8 122.51 600.686 121.552 629.747C121.552 629.747 97.3781 630.581 94.4321 602.8ZM94.4321 602.8L106.28 614.181M527.41 514.794C527.41 514.794 555.487 512.68 554.53 541.741C554.53 541.741 530.356 542.575 527.41 514.794ZM527.41 514.794L539.257 526.165M534.323 153.781C534.323 153.781 562.4 151.667 561.443 180.728C561.443 180.728 537.269 181.562 534.323 153.781ZM534.323 153.781L546.17 165.163M809.471 257.852C809.471 257.852 837.548 255.738 836.591 284.799C836.591 284.799 812.417 285.634 809.471 257.852ZM809.471 257.852L821.319 269.223M46.6257 651.943C43.7648 642.519 33.9909 631.772 10.7206 629.268C10.7206 629.268 11.4119 660.51 33.8314 665.383M68.6729 673.683C64.7591 658.196 49.6143 650.341 29.0561 648.127C29.0561 648.127 32.1084 678.411 54.4215 686.021M77.7236 681.315C77.947 669.344 84.2112 656.137 84.2112 656.137C110.981 682.494 84.5835 701.898 84.5835 701.898L88.6994 705.881M83.2542 703.389C83.2542 703.389 66.7906 732.416 39.6065 706.538C39.6065 706.538 51.7203 698.994 63.1108 697.826M51.5395 654.012C51.5395 654.012 50.359 645.189 56.2829 635.198C56.2829 635.198 77.1495 647.515 80.1274 667.23M35.6821 671.925C35.6821 671.925 27.1845 671.38 18.1231 678.311C18.1231 678.311 31.4599 699.128 50.4866 700.719M54.3258 638.981C51.3159 631.705 33.1188 618.443 33.1188 618.443C29.5134 626.754 32.5232 635.588 32.5232 635.588M17.2934 652.799C17.2934 652.799 8.63621 650.352 1 654.746C1 654.746 15.0281 672.704 22.207 675.285M32.8848 618.721L19.7927 606.049M770.152 83.4207V56.6629M770.152 127.946V98.6186M770.152 183.643V144.068M770.567 169.301C801.399 187.982 786.913 221.638 786.913 221.638L781.691 219.168M769.939 169.301C735.874 187.982 753.943 221.638 753.943 221.638L759.453 219.312M769.939 127.946C816.98 137.481 801.399 195.903 801.399 195.903C801.399 195.903 797.506 193.511 789.391 190.374M769.939 83.4206C830.178 83.3761 814.969 154.404 814.969 154.404C814.969 154.404 803.866 146.961 796.092 144.602M770.343 83.4206C710.104 83.3761 725.313 154.404 725.313 154.404C725.313 154.404 736.406 146.961 744.18 144.602M770.407 127.946C723.367 137.481 738.947 195.903 738.947 195.903C738.947 195.903 742.84 193.511 750.955 190.374M780.926 71.4826C780.926 71.4826 810.843 66.0309 823.648 101.467C832.88 127.023 828.115 161.257 827.998 245.414M758.357 71.527C758.357 71.527 729.684 66.0308 716.879 101.467C707.637 127.023 712.412 161.257 712.54 245.414M530.387 90.2965C530.387 90.2965 530.122 99.5866 516.732 103.113M516.689 71.6828C516.689 71.6828 532.004 73.0513 530.717 57.3416C530.462 54.2263 529.42 46.3826 530.207 43.3118C530.207 43.3118 527.729 44.0795 523.262 48.7524M504.575 76.4336C504.575 76.4336 493.908 88.0157 484.996 75.2988C483.22 72.7732 479.072 66.1644 476.551 64.3843C476.551 64.3843 491.037 60.0118 496.025 64.0616M488.399 45.9486C488.399 45.9486 480.688 39.2285 468.819 45.7261C468.819 45.7261 470.893 45.37 473.967 51.6117C480.04 63.9503 484.56 62.6931 484.56 62.6931M511.52 74.9537C511.52 74.9537 518.221 95.0805 543.639 89.9069C563.081 85.9461 577.832 55.8728 594.721 87.2478M510.191 103.536C512.01 100.065 512.222 83.365 482.486 94.5577C482.486 94.5577 501.661 119.891 510.191 103.536ZM510.191 103.536L499.3 99.4085M549.946 78.1025C549.946 78.1025 576.396 72.0834 566.548 41.3982C566.548 41.3982 524.868 50.6661 549.946 78.1025ZM549.946 78.1025L555.604 62.1479M629.318 142.366C646.579 145.125 648.472 130.984 648.472 130.984M629.318 142.366C629.318 142.366 616.928 170.603 584.873 125.454C584.873 125.454 635.848 110.156 629.318 142.366ZM594.679 123.196C594.679 123.196 579.619 108.198 558.423 119.446M558.423 119.446C558.423 119.446 579.544 140.674 591.626 134.589M558.423 119.446L570.196 109.422C578.662 104.059 587.468 107.898 587.468 107.898M558.423 119.446L563.528 133.52C563.528 133.52 569.632 143.289 582.427 145.036M627.18 128.191C627.18 128.191 632.434 111.458 609.228 106.318C609.228 106.318 607.941 113.327 611.599 121.905M622.086 149.831C622.086 149.831 614.769 162.993 600.39 157.708C600.39 157.708 598.89 152.724 605.186 147.039M610.94 121.104C610.94 121.104 604.58 100.833 587.861 104.437C587.861 104.437 585.032 114.117 594.679 123.207M601.102 152.446C601.102 152.446 591.69 155.082 583.713 151.066C583.713 151.066 579.034 144.402 587.053 136.135M662.649 112.259C662.734 130.539 649.089 130.428 649.089 130.428M662.649 112.259C662.649 112.259 691.152 103.547 653.109 63.8056C653.109 63.8056 631.232 114.34 662.649 112.259ZM649.547 73.6076C649.547 73.6076 637.55 55.8507 651.269 35.546C651.269 35.546 668.276 60.4902 660.767 72.1168M649.546 107.976C649.546 107.976 632.966 110.98 631.477 86.2133C631.477 86.2133 638.305 85.8906 645.877 90.9418M670.754 105.862C670.754 105.862 684.261 100.199 681.357 84.5444C681.357 84.5444 676.858 82.2747 670.573 87.9601M645.207 90.1296C645.207 90.1296 626.957 80.6058 632.796 63.8279C632.796 63.8279 642.357 62.3037 649.557 73.6076M676.273 84.5221C676.273 84.5221 680.134 75.1541 677.496 66.3201C677.496 66.3201 671.881 60.5124 662.894 67.6107M636.135 63.9281C636.135 63.9281 633.795 54.2597 640.092 46.2713L651.28 35.546L663.851 42.8779C663.851 42.8779 672.2 50.6216 671.987 64.1173M648.451 131.006L665.872 152.112M649.376 144.268C649.376 144.268 662.192 170.492 636.241 180.906C636.241 180.906 626.074 157.942 649.376 144.268ZM649.376 144.268L643.984 160.134M661.405 133.398C661.405 133.398 684.345 150.476 697.969 125.132C697.969 125.132 677.73 111.269 661.405 133.398ZM661.405 133.398L676.22 131.006M859 493.466C859 493.466 851.885 493.276 849.056 494.99C842.451 499.006 844.834 505.359 841.888 512.48C841.888 512.48 842.77 508.285 850.959 504.725C859.138 501.154 859 493.477 859 493.477V493.466ZM195.479 99.9982C195.479 99.9982 169.529 86.3245 195.479 51.9232C195.479 51.9232 219.568 80.5168 195.479 99.9982ZM328.698 358.909C328.698 358.909 341.173 365.484 328.698 382.017C328.698 382.017 317.116 368.277 328.698 358.909ZM372.962 456.95C372.962 456.95 347.012 443.277 372.962 408.875C372.962 408.875 397.051 437.469 372.962 456.95ZM668.871 442.042C668.871 442.042 694.821 455.715 668.871 490.117C668.871 490.117 644.782 461.523 668.871 442.042ZM306.566 234.755C306.566 234.755 326.784 214.495 306.236 194.246C306.236 194.246 286.029 210.578 306.566 234.755ZM258.621 415.874C258.621 415.874 238.403 436.134 258.951 456.383C258.951 456.383 279.158 440.05 258.621 415.874ZM562.921 349.419C562.921 349.419 583.139 329.158 562.591 308.909C562.591 308.909 542.384 325.242 562.921 349.419ZM789.232 397.694C789.232 397.694 766.132 420.836 789.604 443.966C789.604 443.966 812.694 425.308 789.232 397.694ZM467.373 579.769C467.373 579.769 480.603 596.536 470.096 608.385C470.096 608.385 457.152 600.196 467.373 579.769ZM480.731 564.393C480.731 564.393 493.961 581.16 483.453 593.009C483.453 593.009 470.521 584.831 480.731 564.393ZM455.599 596.447C455.599 596.447 466.245 616.206 452.77 625.051C452.77 625.051 442.018 612.579 455.599 596.447ZM462.119 576.787C462.119 576.787 443.432 567.263 434.882 580.737C434.882 580.737 445.517 591.974 462.119 576.787ZM475.902 559.887C475.902 559.887 457.216 550.363 448.665 563.837C448.665 563.837 459.311 575.074 475.902 559.887ZM450.314 592.964C450.314 592.964 429.426 586.901 424.448 602.711C424.448 602.711 438.604 610.632 450.314 592.964ZM441.263 610.91C441.263 610.91 446.719 623.071 425.927 634.787C425.927 634.787 425.661 611.122 441.263 610.91ZM514.115 579.769C514.115 579.769 500.885 596.536 511.393 608.385C511.393 608.385 524.336 600.196 514.115 579.769ZM500.746 564.393C500.746 564.393 487.516 581.16 498.024 593.009C498.024 593.009 510.956 584.831 500.746 564.393ZM525.889 596.447C525.889 596.447 515.243 616.206 528.718 625.051C528.718 625.051 539.47 612.579 525.889 596.447ZM519.369 576.787C519.369 576.787 538.056 567.263 546.606 580.737C546.606 580.737 535.971 591.974 519.369 576.787ZM505.575 559.887C505.575 559.887 524.261 550.363 532.812 563.837C532.812 563.837 522.177 575.074 505.575 559.887ZM531.164 592.964C531.164 592.964 552.052 586.901 557.029 602.711C557.029 602.711 542.863 610.632 531.164 592.964ZM540.225 610.91C540.225 610.91 534.769 623.071 555.562 634.787C555.562 634.787 555.827 611.122 540.225 610.91ZM791.04 317.242C791.04 317.242 799.388 295.914 785.18 287.381C785.18 287.381 774.544 299.919 791.04 317.242ZM809.184 328.413C809.184 328.413 817.533 307.084 803.324 298.551C803.324 298.551 792.688 311.09 809.184 328.413ZM774.098 304.236C774.098 304.236 778.926 280.738 762.622 276.21C762.622 276.21 755.496 292.376 774.098 304.236ZM786.616 321.982C786.616 321.982 770.567 337.77 757.858 326.955C757.858 326.955 765.249 312.08 786.616 321.982ZM805.653 334.554C805.653 334.554 789.604 350.342 776.895 339.528C776.895 339.528 784.286 324.652 805.653 334.554ZM769.801 309.499C769.801 309.499 750.487 322.516 740.681 308.153C740.681 308.153 752.635 295.469 769.801 309.499ZM755.241 294.312C755.241 294.312 757.102 280.204 732.535 275.198C732.535 275.198 739.384 299.241 755.241 294.312ZM733.098 599.006C733.098 599.006 704.659 600.107 701.086 578.289C701.086 578.289 720.357 570.379 733.098 599.006ZM737.959 626.998C737.959 626.998 709.52 628.089 705.946 606.282C705.946 606.282 725.217 598.372 737.959 626.998ZM725.558 571.736C725.558 571.736 696.172 567.408 698.171 544.711C698.171 544.711 720.08 542.876 725.558 571.736ZM740.554 595.501C740.554 595.501 766.004 582.172 759.112 561.245C759.112 561.245 738.586 563.993 740.554 595.501ZM746.658 625.252C746.658 625.252 772.109 611.923 765.217 590.995C765.217 590.995 744.68 593.743 746.658 625.252ZM733.566 568.621C733.566 568.621 757.251 549.907 744.967 531.093C744.967 531.093 724.951 540.606 733.566 568.621ZM722.452 543.387C722.452 543.387 705.276 539.482 710.402 506.082C710.402 506.082 735.215 525.475 722.452 543.387ZM307.778 612.657C307.778 612.657 316.127 591.329 301.929 582.784C301.929 582.784 291.293 595.334 307.778 612.657ZM325.922 623.828C325.922 623.828 334.271 602.499 320.062 593.966C320.062 593.966 309.427 606.505 325.922 623.828ZM290.836 599.651C290.836 599.651 295.664 576.153 279.36 571.625C279.36 571.625 272.235 587.791 290.836 599.651ZM303.354 617.397C303.354 617.397 287.305 633.185 274.596 622.37C274.596 622.37 281.987 607.495 303.354 617.397ZM322.391 629.969C322.391 629.969 306.342 645.757 293.633 634.942C293.633 634.942 301.024 620.067 322.391 629.969ZM286.539 604.914C286.539 604.914 267.225 617.931 257.419 603.567C257.419 603.567 269.374 590.884 286.539 604.914ZM271.979 589.727C271.979 589.727 273.84 575.619 249.273 570.612C249.273 570.612 256.122 594.656 271.979 589.727ZM142.717 301.065C142.717 301.065 157.606 285.845 148.353 272.872C148.353 272.872 134.634 279.581 142.717 301.065ZM154.448 317.865C154.448 317.865 169.337 302.645 160.074 289.672C160.074 289.672 146.354 296.37 154.448 317.865ZM132.698 283.142C132.698 283.142 145.312 264.661 132.804 254.337C132.804 254.337 120.829 265.563 132.698 283.142ZM137.176 303.446C137.176 303.446 117.596 310.834 110.459 296.47C110.459 296.47 122.201 286.468 137.176 303.446ZM149.183 321.815C149.183 321.815 129.603 329.203 122.467 314.839C122.467 314.839 134.208 304.837 149.183 321.815ZM127.083 286.012C127.083 286.012 105.663 289.717 102.323 273.418C102.323 273.418 117.234 267.12 127.083 286.012ZM119.893 267.131C119.893 267.131 126.572 255.638 107.067 241.653C107.067 241.653 104.387 265.184 119.893 267.131ZM441.05 353.569C441.05 353.569 443.337 331.917 458.801 331.55C458.801 331.55 462.204 346.982 441.05 353.569ZM421.162 354.258C421.162 354.258 423.449 332.618 438.913 332.24C438.913 332.24 442.326 347.672 421.162 354.258ZM460.715 350.776C460.715 350.776 466.852 328.991 482.337 332.941C482.337 332.941 481.263 349.73 460.715 350.776ZM442.667 359.588C442.667 359.588 449.165 380.271 464.384 377.3C464.384 377.3 464.682 361.468 442.667 359.588ZM421.449 361.023C421.449 361.023 427.947 381.706 443.156 378.735C443.156 378.735 443.454 362.903 421.449 361.023ZM462.012 357.173C462.012 357.173 472.425 377.1 486.75 369.812C486.75 369.812 482.305 353.646 462.012 357.173ZM480.656 351.455C480.656 351.455 485.198 338.871 507.745 346.326C507.745 346.326 491.685 363.037 480.656 351.455ZM509 219.913C509 219.913 503.863 225.064 500.662 225.788C493.196 227.468 490.133 222.828 483.379 219.646C483.379 219.646 487.463 220.38 495.812 217.254C504.161 214.128 509 219.913 509 219.913ZM501.608 205.361C501.608 205.361 496.471 210.512 493.27 211.235C485.804 212.926 482.741 208.275 475.987 205.093C475.987 205.093 480.071 205.828 488.42 202.701C496.769 199.575 501.608 205.361 501.608 205.361ZM491.186 192.688C491.186 192.688 486.049 197.839 482.858 198.563C475.392 200.243 472.329 195.603 465.575 192.421C465.575 192.421 469.649 193.155 477.998 190.029C486.346 186.903 491.186 192.688 491.186 192.688ZM479.189 179.459C479.189 179.459 474.052 184.611 470.851 185.334C463.385 187.014 460.322 182.374 453.568 179.192C453.568 179.192 457.652 179.927 466.001 176.8C474.35 173.674 479.189 179.459 479.189 179.459ZM508.649 211.101C508.649 211.101 514.509 206.874 515.828 203.747C518.912 196.438 513.403 192.755 511.776 185.2C511.776 185.2 513.413 189.128 508.808 197.061C504.203 204.982 508.638 211.101 508.638 211.101H508.649ZM499.438 196.115C499.438 196.115 504.48 190.863 505.235 187.526C507.011 179.76 500.97 177.178 498.077 170.036C498.077 170.036 500.364 173.596 497.194 182.252C494.025 190.919 499.438 196.104 499.438 196.104V196.115ZM488.41 184.688C488.41 184.688 492.866 178.892 493.281 175.498C494.227 167.566 487.952 165.697 484.336 158.932C484.336 158.932 486.984 162.214 484.73 171.182C482.475 180.149 488.41 184.688 488.41 184.688ZM475.658 169.101C475.658 169.101 478.263 162.17 477.678 158.81C476.328 150.944 469.798 151.122 464.416 145.792C464.416 145.792 467.873 148.096 468.287 157.363C468.702 166.631 475.658 169.112 475.658 169.112V169.101ZM41.1912 500.786C41.1912 500.786 47.9021 498.316 51.1034 499.04C58.5694 500.731 59.5266 506.283 64.4189 512.09C64.4189 512.09 60.9943 509.665 52.1563 508.897C43.3183 508.141 41.1912 500.786 41.1912 500.786ZM42.1909 517.242C42.1909 517.242 48.9018 514.761 52.0924 515.495C59.5585 517.186 60.5156 522.738 65.4079 528.546C65.4079 528.546 61.9833 526.109 53.1453 525.352C44.3073 524.596 42.1802 517.242 42.1802 517.242H42.1909ZM46.679 533.274C46.679 533.274 53.3899 530.793 56.5912 531.516C64.0572 533.207 65.0144 538.759 69.9067 544.578C69.9067 544.578 66.4821 542.141 57.6441 541.385C48.8061 540.628 46.679 533.274 46.679 533.274ZM52.3903 550.508C52.3903 550.508 59.1012 548.027 62.3025 548.75C69.7685 550.441 70.7257 555.993 75.618 561.812C75.618 561.812 72.1934 559.375 63.3554 558.619C54.5174 557.862 52.3903 550.508 52.3903 550.508ZM38.0325 508.964C38.0325 508.964 31.0344 510.288 28.5882 512.569C22.8983 517.898 26.4612 523.628 24.9616 531.216C24.9616 531.216 25.0148 526.921 32.3425 521.692C39.6597 516.463 38.0325 508.975 38.0325 508.975V508.964ZM40.5212 526.598C40.5212 526.598 33.8528 529.213 31.8533 531.917C27.1631 538.225 31.6619 543.187 31.4811 550.942C31.4811 550.942 30.8004 546.714 37.1072 540.194C43.414 533.675 40.5318 526.61 40.5318 526.61L40.5212 526.598ZM46.0516 541.763C46.0516 541.763 39.7022 545.123 37.9899 548.038C34.0016 554.847 38.979 559.264 39.6065 566.997C39.6065 566.997 38.4898 562.869 44.0734 555.659C49.6569 548.461 46.0516 541.763 46.0516 541.763ZM51.5182 561.467C51.5182 561.467 46.4132 566.652 45.6156 569.967C43.7437 577.711 49.7527 580.37 52.5605 587.546C52.5605 587.546 50.3164 583.952 53.5921 575.341C56.8678 566.73 51.5182 561.456 51.5182 561.456V561.467ZM405.273 120.414C405.273 120.414 413.59 136.502 430.319 135.69C447.049 134.889 444.517 108.343 444.517 108.343C444.517 108.343 440.114 119.202 430.319 119.202C420.524 119.202 416.536 109.956 405.273 120.403V120.414ZM391.011 120.414C391.011 120.414 382.694 136.502 365.964 135.69C349.235 134.889 351.777 108.343 351.777 108.343C351.777 108.343 356.18 119.202 365.964 119.202C375.749 119.202 379.748 109.956 391.011 120.403V120.414ZM235.862 367.854C235.862 367.854 244.178 383.942 260.908 383.13C277.637 382.329 275.106 355.783 275.106 355.783C275.106 355.783 270.703 366.641 260.908 366.641C251.113 366.641 247.124 357.396 235.862 367.843V367.854ZM221.599 367.854C221.599 367.854 213.282 383.942 196.553 383.13C179.824 382.329 182.365 355.783 182.365 355.783C182.365 355.783 186.768 366.641 196.553 366.641C206.338 366.641 210.336 357.396 221.599 367.843V367.854ZM197.563 660.565C197.563 660.565 206.869 678.567 225.609 677.666C244.349 676.765 241.498 647.058 241.498 647.058C241.498 647.058 236.563 659.219 225.609 659.219C214.655 659.219 210.177 648.861 197.563 660.565ZM181.6 660.565C181.6 660.565 172.294 678.567 153.554 677.666C134.825 676.765 137.665 647.058 137.665 647.058C137.665 647.058 142.6 659.219 153.554 659.219C164.509 659.219 168.986 648.861 181.6 660.565ZM631.583 631.149C631.583 631.149 639.9 647.225 656.63 646.424C673.359 645.623 670.817 619.077 670.817 619.077C670.817 619.077 666.414 629.936 656.63 629.936C646.845 629.936 642.846 620.69 631.583 631.137V631.149ZM617.321 631.149C617.321 631.149 609.004 647.225 592.275 646.424C575.545 645.623 578.077 619.077 578.077 619.077C578.077 619.077 582.48 629.936 592.275 629.936C602.07 629.936 606.058 620.69 617.321 631.137V631.149ZM397.828 216.776C397.828 216.776 411.814 230.327 412.228 243.878C412.643 257.43 399.891 258.297 399.072 258.297C398.253 258.297 385.916 259.154 385.087 245.825C384.576 237.614 388.171 226.889 397.839 216.787L397.828 216.776ZM661.926 219.09C661.926 219.09 667.808 230.483 665.34 238.905C662.883 247.327 654.875 245.058 654.364 244.88C653.854 244.702 646.101 242.521 648.27 234.143C649.6 228.992 653.96 223.184 661.926 219.09ZM499.662 683.485C499.662 683.485 514.817 689.96 519.061 700.73C523.304 711.5 513.296 716.217 512.637 716.473C511.978 716.729 502.31 721.324 497.79 710.854C495.014 704.413 494.801 694.655 499.651 683.473L499.662 683.485ZM59.8244 396.147C59.8244 396.147 59.1012 376.221 67.9711 366.33C76.841 356.439 86.4448 365.262 87.0191 365.874C87.5934 366.486 96.91 374.997 88.4761 385.044C83.2861 391.219 73.5015 396.147 59.835 396.147H59.8244ZM84.5731 701.887C84.5731 701.887 84.0306 668.431 51.8586 670.734C51.8586 670.734 49.2635 701.13 84.5731 701.887ZM770.152 199.252C770.152 199.252 796.102 212.926 770.152 247.327C770.152 247.327 746.063 218.734 770.152 199.252ZM499.662 41.5204C499.662 41.5204 514.817 47.9957 519.061 58.7656C523.304 69.5354 513.296 74.2528 512.637 74.5087C511.978 74.7646 502.31 79.3596 497.79 68.8901C495.014 62.4482 494.801 52.6908 499.651 41.5093L499.662 41.5204Z" stroke="white" stroke-width="1.2" stroke-linecap="round" stroke-linejoin="round"/>
</svg>
