<svg width="28" height="21" viewBox="0 0 28 21" fill="none" xmlns="http://www.w3.org/2000/svg">
<path d="M3.41094 7.59373C3.26885 7.59373 3.15687 7.5478 3.075 7.45592C2.99292 7.36405 2.95187 7.25342 2.95187 7.12405C2.95187 6.99488 2.99292 6.88061 3.075 6.78123C3.15687 6.68186 3.26885 6.63217 3.41094 6.63217H7.70687C8.035 6.63217 8.33052 6.72228 8.59344 6.90248C8.85656 7.0829 9.07219 7.31332 9.24031 7.59373H3.41094ZM6.01406 19.0769C7.17448 19.0769 8.1626 18.6707 8.97844 17.8584C9.79406 17.0461 10.2019 16.0598 10.2019 14.8994C10.2019 13.7389 9.79573 12.7508 8.98344 11.935C8.17115 11.1194 7.18479 10.7115 6.02437 10.7115C4.86396 10.7115 3.87583 11.1177 3.06 11.93C2.24437 12.7423 1.83656 13.7286 1.83656 14.889C1.83656 16.0495 2.24271 17.0376 3.055 17.8534C3.86729 18.669 4.85365 19.0769 6.01406 19.0769ZM23.4538 19.0769C24.1994 19.0769 24.8374 18.8135 25.3678 18.2869C25.8982 17.76 26.1634 17.1157 26.1634 16.354C26.1634 15.6084 25.9001 14.9704 25.3734 14.44C24.8466 13.9096 24.2103 13.6444 23.4647 13.6444C22.703 13.6444 22.057 13.9077 21.5266 14.4344C20.9959 14.9612 20.7306 15.5975 20.7306 16.3431C20.7306 17.1048 20.9941 17.7508 21.5209 18.2812C22.0476 18.8117 22.6919 19.0769 23.4538 19.0769ZM6.01875 16.4328C5.59125 16.4328 5.22802 16.2831 4.92906 15.9837C4.6301 15.6846 4.48063 15.3212 4.48063 14.8937C4.48063 14.4662 4.63031 14.103 4.92969 13.804C5.22885 13.5051 5.59219 13.3556 6.01969 13.3556C6.44719 13.3556 6.81042 13.5053 7.10938 13.8047C7.40833 14.1038 7.55781 14.4672 7.55781 14.8947C7.55781 15.3222 7.40813 15.6854 7.10875 15.9844C6.80958 16.2833 6.44625 16.4328 6.01875 16.4328ZM24.0963 12.7212C24.2838 12.7773 24.4423 12.8287 24.5719 12.8756C24.7013 12.9225 24.8632 12.9887 25.0578 13.0744V6.19936C25.0578 5.70978 24.8917 5.29894 24.5594 4.96686C24.2273 4.63478 23.8165 4.46873 23.3269 4.46873H16.6056L15.1947 3.03374L17.0359 1.19217L16.3053 0.461548L11.875 4.89186L12.6297 5.62967L14.4641 3.79561L15.875 5.19405V7.29561C15.875 8.31582 15.512 9.19707 14.7859 9.93936C14.0601 10.6817 13.1755 11.0528 12.1322 11.0528H9.47125C9.64917 11.2484 9.79292 11.4095 9.9025 11.5359C10.0123 11.6626 10.1442 11.8221 10.2981 12.0144H12.1322C13.4382 12.0144 14.5489 11.5487 15.4641 10.6175C16.3791 9.68644 16.8366 8.57915 16.8366 7.29561V5.4303H23.3269C23.5513 5.4303 23.7355 5.50644 23.8797 5.65874C24.0241 5.81082 24.0963 5.99103 24.0963 6.19936V12.7212ZM19.9109 15.375C19.988 15.1571 20.0576 14.9802 20.1197 14.8444C20.1818 14.7085 20.2669 14.5625 20.375 14.4062H11.1491C11.1586 14.59 11.1634 14.7476 11.1634 14.879C11.1634 15.0103 11.1586 15.1756 11.1491 15.375H19.9109ZM23.4628 20.0384C22.438 20.0384 21.5662 19.6858 20.8475 18.9806C20.1287 18.2752 19.7694 17.4131 19.7694 16.3944C19.7694 15.3569 20.1285 14.4788 20.8469 13.7603C21.5654 13.042 22.4433 12.6828 23.4806 12.6828C24.4996 12.6828 25.3618 13.0425 26.0672 13.7619C26.7724 14.4814 27.125 15.3477 27.125 16.3606C27.125 17.3958 26.7708 18.2676 26.0625 18.9759C25.3542 19.6843 24.4876 20.0384 23.4628 20.0384ZM5.97219 20.0384C4.5501 20.0384 3.345 19.5369 2.35688 18.5337C1.36896 17.5306 0.875 16.3175 0.875 14.8944C0.875 13.471 1.37542 12.2578 2.37625 11.2547C3.37708 10.2515 4.58979 9.74998 6.01438 9.74998C7.43896 9.74998 8.65323 10.2521 9.65719 11.2562C10.6614 12.2602 11.1634 13.4745 11.1634 14.899C11.1634 16.3236 10.6642 17.5363 9.66562 18.5372C8.66708 19.538 7.43594 20.0384 5.97219 20.0384Z" fill="#1C1B1F"/>
</svg>
