<svg width="20" height="20" viewBox="0 0 20 20" fill="none" xmlns="http://www.w3.org/2000/svg">
<path d="M13.8719 19.9038L6.14906 17.1875L1.2675 19.0963C0.967292 19.2288 0.681042 19.2075 0.40875 19.0325C0.13625 18.8575 0 18.6009 0 18.2628V3C0 2.77729 0.0540626 2.57375 0.162188 2.38938C0.270313 2.20521 0.426146 2.07698 0.629687 2.00469L6.14906 0.0962524L13.8719 2.79156L18.7325 0.899065C19.0327 0.76969 19.319 0.779689 19.5912 0.929064C19.8637 1.07844 20 1.31417 20 1.63625V17.1572C20 17.3789 19.9339 17.5719 19.8016 17.7363C19.6695 17.9008 19.5006 18.0176 19.295 18.0866L13.8719 19.9038ZM13.2916 18.6025V3.62344L6.70844 1.34469V16.3237L13.2916 18.6025ZM14.3494 18.6025L18.9422 17.0947V1.90719L14.3494 3.62344V18.6025ZM1.05781 18.0722L5.65063 16.3237V1.34469L1.05781 2.90063V18.0722Z" fill="#1C1B1F"/>
</svg>
